<?xml version="1.0" encoding="UTF-8" standalone="no"?>
<!-- Created with Inkscape (http://www.inkscape.org/) -->

<svg
   xmlns:dc="http://purl.org/dc/elements/1.1/"
   xmlns:cc="http://creativecommons.org/ns#"
   xmlns:rdf="http://www.w3.org/1999/02/22-rdf-syntax-ns#"
   xmlns:svg="http://www.w3.org/2000/svg"
   xmlns="http://www.w3.org/2000/svg"
   xmlns:sodipodi="http://sodipodi.sourceforge.net/DTD/sodipodi-0.dtd"
   xmlns:inkscape="http://www.inkscape.org/namespaces/inkscape"
   width="613.83331mm"
   height="193.43422mm"
   viewBox="0 0 613.8333 193.43422"
   version="1.1"
   id="svg1241"
   inkscape:version="0.92.4 (5da689c313, 2019-01-14)"
   sodipodi:docname="header.svg">
  <defs
     id="defs1235">
    <inkscape:path-effect
       effect="simplify"
       id="path-effect1846"
       is_visible="true"
       steps="1"
       threshold="0.0118015"
       smooth_angles="360"
       helper_size="0"
       simplify_individual_paths="false"
       simplify_just_coalesce="false"
       simplifyindividualpaths="false"
       simplifyJustCoalesce="false" />
    <inkscape:path-effect
       effect="simplify"
       id="path-effect1834"
       is_visible="true"
       steps="1"
       threshold="0.0118015"
       smooth_angles="360"
       helper_size="0"
       simplify_individual_paths="false"
       simplify_just_coalesce="false"
       simplifyindividualpaths="false"
       simplifyJustCoalesce="false" />
    <inkscape:path-effect
       effect="simplify"
       id="path-effect1794"
       is_visible="true"
       steps="1"
       threshold="0.0118015"
       smooth_angles="360"
       helper_size="0"
       simplify_individual_paths="false"
       simplify_just_coalesce="false"
       simplifyindividualpaths="false"
       simplifyJustCoalesce="false" />
    <inkscape:path-effect
       effect="skeletal"
       id="path-effect1790"
       is_visible="true"
       pattern="M 0,5 C 0,2.24 2.24,0 5,0 7.76,0 10,2.24 10,5 10,7.76 7.76,10 5,10 2.24,10 0,7.76 0,5 Z"
       copytype="single_stretched"
       prop_scale="0.26458333"
       scale_y_rel="false"
       spacing="0"
       normal_offset="0"
       tang_offset="0"
       prop_units="false"
       vertical_pattern="false"
       fuse_tolerance="0" />
    <inkscape:path-effect
       effect="simplify"
       id="path-effect1788"
       is_visible="true"
       steps="1"
       threshold="0.0118015"
       smooth_angles="360"
       helper_size="0"
       simplify_individual_paths="false"
       simplify_just_coalesce="false"
       simplifyindividualpaths="false"
       simplifyJustCoalesce="false" />
    <clipPath
       clipPathUnits="userSpaceOnUse"
       id="clipPath1808">
      <rect
         style="opacity:0;fill:#39446d;fill-opacity:0.99489794;stroke:#39446d;stroke-width:0.28175095;stroke-opacity:0.06632655"
         id="rect1810"
         width="208.7225"
         height="64.257278"
         x="2.7579503"
         y="-4.2554789" />
    </clipPath>
    <clipPath
       clipPathUnits="userSpaceOnUse"
       id="clipPath1840">
      <rect
         style="opacity:0;fill:#2c2f33;fill-opacity:1;stroke:#2c2f33;stroke-width:0.99999994;stroke-opacity:1"
         id="rect1842"
         width="2140"
         height="1495.9999"
         x="-4.000001"
         y="-88.492912" />
    </clipPath>
    <clipPath
       clipPathUnits="userSpaceOnUse"
       id="clipPath1852">
      <rect
         style="opacity:0;fill:#2c2f33;fill-opacity:1;stroke:#2c2f33;stroke-width:0.99999994;stroke-opacity:1"
         id="rect1854"
         width="2320"
         height="1228"
         x="-44.000011"
         y="-274.26437" />
    </clipPath>
  </defs>
  <sodipodi:namedview
     id="base"
     pagecolor="#ffffff"
     bordercolor="#666666"
     borderopacity="1.0"
     inkscape:pageopacity="0.0"
     inkscape:pageshadow="2"
     inkscape:zoom="0.25"
     inkscape:cx="1655.8492"
     inkscape:cy="-20.851495"
     inkscape:document-units="mm"
     inkscape:current-layer="layer1"
     showgrid="false"
     inkscape:window-width="1366"
     inkscape:window-height="705"
     inkscape:window-x="-8"
     inkscape:window-y="-8"
     inkscape:window-maximized="1" />
  <metadata
     id="metadata1238">
    <rdf:RDF>
      <cc:Work
         rdf:about="">
        <dc:format>image/svg+xml</dc:format>
        <dc:type
           rdf:resource="http://purl.org/dc/dcmitype/StillImage" />
        <dc:title></dc:title>
      </cc:Work>
    </rdf:RDF>
  </metadata>
  <g
     inkscape:label="Calque 1"
     inkscape:groupmode="layer"
     id="layer1"
     transform="translate(67.556122,92.685307)">
    <path
       style="opacity:1;fill:#2c2f33;fill-opacity:1;stroke:#2c2f33;stroke-width:4;stroke-opacity:1"
       d="m 1073.6233,450.038 c -29.8744,-6.841 -75.25299,-25.68952 -166.97411,-69.35464 -76.78664,-36.55536 -98.29416,-42.45204 -144.37872,-39.58408 -33.41292,2.07936 -79.09768,16.03756 -179.17076,54.74264 -103.95528,40.20652 -132.46744,41.38252 -252.12172,10.39868 -46.38084,-12.01008 -100.3146,-24.61008 -119.85276,-28 -90.73879,-15.74348 -165.28073,-1.14088 -224.353401,43.95032 -17.325968,13.2252 -20.828324,14.38876 -36.318704,12.06584 -9.428984,-1.41396 -24.463704,-7.87348 -33.410496,-14.35452 -31.989679,-23.1732 -47.070259,-59.04852 -64.321329,-153.01452 -6.54416,-35.64584 -15.40572,-81.50287 -19.69235,-101.90451 -20.45309,-97.343844 -11.94352,-200.324844 26.1822,-316.85114 51.169279,-156.39229 139.95634648,-256.10265 247.43804,-277.87983 47.34256,-9.59222 166.71552,-14.17442 369.70568,-14.19139 201.37624,-0.0168 237.74436,-1.8917 394.29432,-20.32695 59.93532,-7.05796 108.194,-9.02698 288.00001,-11.7508 316.9964,-4.80207 456.4585,-12.09157 724,-37.84252 173.3963,-16.68944 217.2849,-19.35428 324.6708,-19.71343 100.4353,-0.3359 105.1293,-0.009 116,8.06806 6.2311,4.62997 14.8999,14.51659 19.2641,21.97026 11.4722,19.59374 12.6492,78.27623 3.7837,188.64809 l -7.3124,91.03648 9.437,56.96352 c 20.5131,123.821286 9.1649,241.063806 -40.261,415.95112 -18.7623,66.38812 -29.8233,89.402 -56.5508,117.66252 -51.5568,54.51364 -123.6625,62.41156 -228.0103,24.97456 -69.1894,-24.82324 -105.9498,-22.86604 -228.3332,12.15688 -105.8855,30.30164 -138.0229,32.68312 -238.6879,17.6876 -32.1934,-4.79568 -73.013,-6.94424 -136,-7.15844 -99.266,-0.3376 -128.1405,3.3212 -204,25.84912 -50.5773,15.01988 -104.1913,18.69384 -143.0259,9.80108 z"
       id="path1848"
       inkscape:connector-curvature="0"
       transform="matrix(0.26458333,0,0,0.26458333,-55.914452,-20.119526)"
       clip-path="url(#clipPath1852)" />
  </g>
</svg>
