<?xml version="1.0" encoding="utf-8"?>
<!-- Generator: Adobe Illustrator 23.0.1, SVG Export Plug-In . SVG Version: 6.00 Build 0)  -->
<svg version="1.1" id="Calque_1" xmlns="http://www.w3.org/2000/svg" xmlns:xlink="http://www.w3.org/1999/xlink" x="0px" y="0px"
	 viewBox="0 0 3971.9 615.5" style="enable-background:new 0 0 3971.9 615.5;" xml:space="preserve">
<style type="text/css">
	.st0{fill:#EAEAEA;}
</style>
<g>
	<path class="st0" d="M480.6,209.2c0-128.5,115.1-191.6,231-191.6c115.9,0,231.8,63.8,231.8,191.6V400
		c0,127.7-115.1,191.6-231,191.6S480.6,527.7,480.6,400V209.2z M621.7,400c0,41,45.7,60.7,90.7,60.7s89.9-20.5,89.9-60.7V209.2
		c0-43.4-46.5-63.1-92.2-63.1c-44.2,0-88.3,22.1-88.3,63.1L621.7,400L621.7,400z"/>
	<path class="st0" d="M1365.8,286.5c76.5,38.6,85.9,110.4,78.8,152.9c-14.2,89.9-74.9,144.3-198.7,144.3h-227.8V25.5h223.9
		c106.4,0,184.5,63.8,181.3,170.3C1422.6,221.1,1406.1,266,1365.8,286.5z M1242.1,243.9c68.6,0,70.9-99.3,0-99.3h-82v99.3H1242.1z
		 M1242.1,459.9c85.1,0,83.6-114.3,0-114.3h-82v114.3H1242.1z"/>
	<path class="st0" d="M2493.1,583.7h-151.4l-36.3-111.9h-149l-34.7,111.9h-151.4l194.7-558.1h128.5L2493.1,583.7z M2271.6,346.4
		L2233,183.2h-3.9l-41,163.2H2271.6z"/>
	<path class="st0" d="M2877.8,286.5c76.5,38.6,85.9,110.4,78.8,152.9c-14.2,89.9-74.9,144.3-198.7,144.3h-227.8V25.5h223.9
		c106.4,0,184.5,63.8,181.3,170.3C2934.6,221.1,2918,266,2877.8,286.5z M2754.1,243.9c68.6,0,70.9-99.3,0-99.3h-82v99.3H2754.1z
		 M2754.1,459.9c85.1,0,83.6-114.3,0-114.3h-82v114.3H2754.1z"/>
	<path class="st0" d="M3008.7,209.2c0-128.5,115.1-191.6,231-191.6c115.9,0,231.8,63.8,231.8,191.6V400
		c0,127.7-115.1,191.6-231,191.6c-115.9,0-231.8-63.8-231.8-191.6V209.2z M3149.8,400c0,41,45.7,60.7,90.7,60.7s89.9-20.5,89.9-60.7
		V209.2c0-43.4-46.5-63.1-92.2-63.1c-44.1,0-88.3,22.1-88.3,63.1L3149.8,400L3149.8,400z"/>
</g>
<path class="st0" d="M1510.1,172.9V25.5h223.1c115.1,0,204.2,52.8,207.3,183.7c0,103.3-41.8,161.6-109.6,182.9l152.2,191.6h-175.8
	 M1735.6,284.9c89.1,0,89.1-127.7,0-127.7h-82.8v127.7H1735.6z"/>
<path class="st0" d="M3799.4,159.2v424.9l-142.7-197.9v-227h-148.2v-134h439.1v134L3799.4,159.2L3799.4,159.2z"/>
<path class="st0" d="M442.7,466.2C398.9,554.5,317,582.5,275.5,588.9L21.8,237.2v-28.8c0-126.1,110.4-190.8,222.3-190.8
	c68.6,0,151.4,29.2,196.3,128.5l-115.1,46.5c-37.8-69.4-162.4-53.6-162.4,15.8v192.4c0,67,126.1,85.9,156.9,8.7L442.7,466.2z"/>
</svg>
