<svg id="Calque_1" data-name="Calque 1" xmlns="http://www.w3.org/2000/svg" viewBox="0 0 2122.63 2113.46"><defs><style>.cls-1{fill:#7289da;}.cls-2{fill:none;}.cls-3{fill:#dce7ff;}.cls-4{fill:#150016;}.cls-5{fill:#f05;}.cls-6{fill:#fff;}</style></defs><title>cobrabottete2</title><rect class="cls-1" width="2122.63" height="2113.46"/><circle class="cls-1" cx="1063.61" cy="1058.36" r="1044.12"/><line class="cls-2" x1="717.32" y1="356.33" x2="718.67" y2="1109.03"/><path class="cls-3" d="M717.32,356.33q3.6,5.87,6.72,11.75c2.12,3.92,4.11,7.83,6.05,11.75,3.86,7.83,7.42,15.66,10.81,23.49,6.71,15.67,12.63,31.34,17.93,47a777.85,777.85,0,0,1,25.15,94c12.71,62.71,18.28,125.42,18.51,188.15S797.34,858,784.9,920.73a768.23,768.23,0,0,1-24.85,94.13c-5.25,15.69-11.15,31.38-17.84,47.08-3.38,7.85-6.92,15.7-10.78,23.55-1.95,3.93-3.93,7.85-6,11.77s-4.32,7.85-6.72,11.77q-3.61-5.88-6.76-11.75c-2.13-3.92-4.13-7.83-6.09-11.74-3.88-7.83-7.46-15.67-10.86-23.51-6.74-15.67-12.69-31.34-18-47a769.48,769.48,0,0,1-25.19-94c-12.67-62.7-18.19-125.42-18.26-188.14s5.35-125.46,17.84-188.21a773.09,773.09,0,0,1,24.81-94.14c5.23-15.69,11.11-31.38,17.76-47.07,3.37-7.84,6.89-15.7,10.73-23.54,1.94-3.93,3.91-7.85,6-11.78S714.94,360.25,717.32,356.33Z"/><path class="cls-4" d="M802.55,724.33s-.94,66.29-2.41,69.5c-2.72,5.92-29.26,35.63-73.1,39-36.61,2.81-72-13.55-90.44-40.74-2.49-3.68-2.8-53-2.8-53s.43-58.2,2.27-62c3.62-7.44,28.44-41.3,73.32-46.55,52.4-6.12,86.67,33.13,89.85,36.92C801.07,669.65,802.55,724.33,802.55,724.33Z"/><line class="cls-2" x1="1404.47" y1="355.35" x2="1406.33" y2="1108.05"/><path class="cls-3" d="M1404.47,355.35q3.6,5.86,6.73,11.74c2.13,3.92,4.11,7.83,6.06,11.75,3.87,7.83,7.43,15.66,10.84,23.5,6.71,15.67,12.65,31.33,18,47a773.27,773.27,0,0,1,25.21,94c12.75,62.69,18.37,125.41,18.64,188.14s-5.06,125.46-17.46,188.22a768.16,768.16,0,0,1-24.79,94.15c-5.24,15.69-11.13,31.39-17.8,47.09-3.37,7.85-6.92,15.7-10.77,23.55-1.94,3.93-3.92,7.86-6,11.77s-4.32,7.85-6.71,11.78q-3.61-5.86-6.77-11.74c-2.14-3.92-4.13-7.83-6.09-11.74-3.9-7.83-7.47-15.67-10.89-23.5-6.74-15.67-12.71-31.33-18-47a768.23,768.23,0,0,1-25.25-94c-12.71-62.69-18.28-125.41-18.39-188.13s5.27-125.47,17.71-188.22a774.71,774.71,0,0,1,24.75-94.15c5.23-15.69,11.09-31.39,17.72-47.08,3.37-7.85,6.89-15.7,10.72-23.55,1.93-3.92,3.89-7.85,6-11.77S1402.09,359.27,1404.47,355.35Z"/><path class="cls-4" d="M1321,725.2s1.22,66.29,2.71,69.5c2.74,5.9,29.42,35.5,73.26,38.69,36.63,2.65,72-13.86,90.27-41.13,2.48-3.69,2.58-53,2.58-53s-.68-58.19-2.54-62c-3.66-7.42-28.62-41.18-73.52-46.23-52.43-5.89-86.52,33.5-89.69,37.3C1322.29,670.52,1321,725.2,1321,725.2Z"/><path class="cls-5" d="M1069.92,1627.19h0a16.54,16.54,0,0,1-16.54-16.54V1453.28a16.54,16.54,0,0,1,16.54-16.54h0a16.54,16.54,0,0,1,16.54,16.54v157.37A16.53,16.53,0,0,1,1069.92,1627.19Z"/><path class="cls-5" d="M1074.92,1600.08h0a11.24,11.24,0,0,1,4,15.15l-58.34,103.41a10.71,10.71,0,0,1-14.81,4.06h0a11.24,11.24,0,0,1-4-15.15l58.34-103.41A10.72,10.72,0,0,1,1074.92,1600.08Z"/><path class="cls-5" d="M1064.92,1600.08h0a10.71,10.71,0,0,1,14.81,4.06l58.34,103.41a11.23,11.23,0,0,1-4,15.15h0a10.71,10.71,0,0,1-14.81-4.06L1061,1615.23A11.24,11.24,0,0,1,1064.92,1600.08Z"/><polygon class="cls-6" points="935.11 1384.11 924.75 1606.22 895.15 1385.85 935.11 1384.11"/><polygon class="cls-6" points="1251.75 1385.85 1222.34 1601.95 1211.79 1384.11 1251.75 1385.85"/></svg>