<?xml version="1.0" encoding="UTF-8" standalone="no"?>
<!-- Created with Inkscape (http://www.inkscape.org/) -->

<svg
   xmlns:dc="http://purl.org/dc/elements/1.1/"
   xmlns:cc="http://creativecommons.org/ns#"
   xmlns:rdf="http://www.w3.org/1999/02/22-rdf-syntax-ns#"
   xmlns:svg="http://www.w3.org/2000/svg"
   xmlns="http://www.w3.org/2000/svg"
   xmlns:sodipodi="http://sodipodi.sourceforge.net/DTD/sodipodi-0.dtd"
   xmlns:inkscape="http://www.inkscape.org/namespaces/inkscape"
   width="518.60986mm"
   height="28.242582mm"
   viewBox="0 0 518.60986 28.242582"
   version="1.1"
   id="svg8"
   inkscape:version="0.92.4 (5da689c313, 2019-01-14)"
   sodipodi:docname="footer.svg">
  <defs
     id="defs2">
    <inkscape:path-effect
       simplifyJustCoalesce="false"
       simplifyindividualpaths="false"
       simplify_just_coalesce="false"
       simplify_individual_paths="false"
       helper_size="0"
       smooth_angles="360"
       threshold="0.00853342"
       steps="1"
       is_visible="true"
       id="path-effect832"
       effect="simplify" />
    <inkscape:path-effect
       effect="simplify"
       id="path-effect837"
       is_visible="true"
       steps="1"
       threshold="0.00853342"
       smooth_angles="360"
       helper_size="0"
       simplify_individual_paths="false"
       simplify_just_coalesce="false"
       simplifyindividualpaths="false"
       simplifyJustCoalesce="false" />
    <inkscape:path-effect
       effect="simplify"
       id="path-effect833"
       is_visible="true"
       steps="1"
       threshold="0.00980583"
       smooth_angles="360"
       helper_size="0"
       simplify_individual_paths="false"
       simplify_just_coalesce="false"
       simplifyindividualpaths="false"
       simplifyJustCoalesce="false" />
    <inkscape:path-effect
       effect="simplify"
       id="path-effect861"
       is_visible="true"
       steps="1"
       threshold="0.0118015"
       smooth_angles="360"
       helper_size="0"
       simplify_individual_paths="false"
       simplify_just_coalesce="false"
       simplifyindividualpaths="false"
       simplifyJustCoalesce="false" />
    <inkscape:path-effect
       effect="simplify"
       id="path-effect831"
       is_visible="true"
       steps="1"
       threshold="0.0118015"
       smooth_angles="360"
       helper_size="0"
       simplify_individual_paths="false"
       simplify_just_coalesce="false"
       simplifyindividualpaths="false"
       simplifyJustCoalesce="false" />
    <clipPath
       clipPathUnits="userSpaceOnUse"
       id="clipPath940">
      <rect
         style="opacity:1;fill:#000080;fill-opacity:1;stroke:#000080;stroke-width:0.26458332;stroke-opacity:1"
         id="rect942"
         width="401.63748"
         height="16.404167"
         x="-25.929167"
         y="16.012501" />
    </clipPath>
    <clipPath
       clipPathUnits="userSpaceOnUse"
       id="clipPath944">
      <rect
         style="opacity:1;fill:#000080;fill-opacity:1;stroke:#000080;stroke-width:0.26458332;stroke-opacity:1"
         id="rect946"
         width="401.63748"
         height="16.404167"
         x="-25.929167"
         y="16.012501" />
    </clipPath>
    <clipPath
       clipPathUnits="userSpaceOnUse"
       id="clipPath849">
      <rect
         style="opacity:0;fill:#39446d;fill-opacity:1;stroke:#39446d;stroke-width:0.21084197;stroke-opacity:1"
         id="rect851"
         width="329.32901"
         height="42.656219"
         x="-41.444229"
         y="53.240459"
         d="m -41.444229,53.240459 c 109.776337,0 329.329009,-109.77634 329.329009,0 0,14.21874 14.21874,42.65622 0,42.65622 -109.77634,0 -329.329009,109.776341 -329.329009,0 0,-14.21874 0,-28.43748 0,-42.65622 z" />
    </clipPath>
  </defs>
  <sodipodi:namedview
     id="base"
     pagecolor="#ffffff"
     bordercolor="#666666"
     borderopacity="1.0"
     inkscape:pageopacity="0.0"
     inkscape:pageshadow="2"
     inkscape:zoom="8"
     inkscape:cx="94.553436"
     inkscape:cy="39.308386"
     inkscape:document-units="mm"
     inkscape:current-layer="layer1"
     showgrid="false"
     inkscape:window-width="1366"
     inkscape:window-height="705"
     inkscape:window-x="-8"
     inkscape:window-y="-8"
     inkscape:window-maximized="1" />
  <metadata
     id="metadata5">
    <rdf:RDF>
      <cc:Work
         rdf:about="">
        <dc:format>image/svg+xml</dc:format>
        <dc:type
           rdf:resource="http://purl.org/dc/dcmitype/StillImage" />
        <dc:title />
      </cc:Work>
    </rdf:RDF>
  </metadata>
  <g
     inkscape:label="Calque 1"
     inkscape:groupmode="layer"
     id="layer1"
     transform="translate(35.954462,-53.217073)">
    <path
       style="opacity:0;fill:#000000;fill-opacity:1;stroke:#2c2f33;stroke-opacity:1"
       d="M 548.52141,16.488469 C 538.21557,13.628689 531.9251,11.208659 510.60187,1.9002892 484.60384,-9.4488107 480.21529,-10.543111 460.52141,-10.587421 c -21.79075,-0.049 -26.45544,1.1761303 -64.08335,16.8312002 -12.52957,5.2129198 -22.21031,6.9633498 -34.91665,6.3134698 -16.6135,-0.84971 -29.09066,-5.6231498 -47.43361,-18.1468498 -12.53216,-8.5563802 -18.79467,-10.8656602 -29.56639,-10.9025202 -11.23431,-0.0385 -16.28136,1.56347 -40.70595,12.9199402 C 220.0602,7.4730892 209.72812,10.775059 196.52141,11.542289 178.80505,12.571499 169.04869,8.7556792 153.98256,-5.0951308 140.02813,-17.923911 130.22303,-21.972541 117.5263,-20.148301 105.39729,-18.405631 93.892289,-11.760011 78.821983,2.2084292 64.763517,15.239019 60.650979,15.583879 30.748273,6.2397692 19.412112,2.6974092 10.418924,0.49405922 5.8024969,0.12800922 -2.9583971,-0.56667078 -6.6411735,-2.6003508 -9.5886562,-8.3712007 -14.319368,-17.633421 -12.875532,-39.416385 -6.4216143,-56.151953 0.67419188,-74.551991 23.453359,-94.784596 50.52141,-106.72912 c 40.817989,-18.01206 90.24669,-22.41543 190.35153,-16.95753 14.76834,0.8052 41.99334,1.93367 60.5,2.50772 74.1293,2.29938 96.71822,3.48941 124.14847,6.54035 18.9574,2.10854 50.69961,3.42791 83.5,3.47068 66.31621,0.0865 118.54023,5.9928 160.5,18.151919 5.775,1.673481 21.075,6.861205 34,11.528276 12.925,4.66707 29.575,10.079499 37,12.02762 11.99521,3.14722 15.28346,3.595166 29.5,4.018681 16.65143,0.496051 15.99268,0.575849 41.65694,-5.046213 8.27181,-1.812039 12.78389,-1.032417 14.79856,2.556979 3.11069,5.542076 -2.67099,18.639576 -19.91927,45.124017 -6.00992,9.22814 -11.51405,18.1043802 -12.2314,19.7249702 -3.11399,7.035 -20.00537,8.52113 -38.80483,3.41412002 -7.90263,-2.14681002 -12.72632,-2.85263002 -19.5,-2.85329002 -10.23945,-10e-4 -15.38642,1.77400003 -24.00587,8.27879 -14.47764,10.9257498 -24.24219,11.3758898 -53.37815,2.4607 -19.14317,-5.85754 -26.58534,-7.37909998 -36.09226,-7.37909998 -9.98523,0 -18.04106,2.47095998 -26.18968,8.03315998 -11.52508,7.8669498 -15.93498,9.3755398 -28.33404,9.6928898 -9.08301,0.23247 -12.48131,-0.12952 -19.5,-2.07715 z"
       id="path863"
       inkscape:connector-curvature="0"
       transform="scale(0.26458333)" />
    <path
       style="opacity:0;fill:#000000;fill-opacity:1;stroke:#2c2f33;stroke-opacity:1"
       d="M 548.52141,16.488469 C 538.21557,13.628689 531.9251,11.208659 510.60187,1.9002892 484.60384,-9.4488107 480.21529,-10.543111 460.52141,-10.587421 c -21.79075,-0.049 -26.45544,1.1761303 -64.08335,16.8312002 -12.52957,5.2129198 -22.21031,6.9633498 -34.91665,6.3134698 -16.6135,-0.84971 -29.09066,-5.6231498 -47.43361,-18.1468498 -12.53216,-8.5563802 -18.79467,-10.8656602 -29.56639,-10.9025202 -11.23431,-0.0385 -16.28136,1.56347 -40.70595,12.9199402 C 220.0602,7.4730892 209.72812,10.775059 196.52141,11.542289 178.80505,12.571499 169.04869,8.7556792 153.98256,-5.0951308 140.02813,-17.923911 130.22303,-21.972541 117.5263,-20.148301 105.39729,-18.405631 93.892289,-11.760011 78.821983,2.2084292 64.763517,15.239019 60.650979,15.583879 30.748273,6.2397692 19.412112,2.6974092 10.418924,0.49405922 5.8024969,0.12800922 -2.9583971,-0.56667078 -6.6411735,-2.6003508 -9.5886562,-8.3712007 -14.319368,-17.633421 -12.875532,-39.416385 -6.4216143,-56.151953 0.67419188,-74.551991 23.453359,-94.784596 50.52141,-106.72912 c 40.817989,-18.01206 90.24669,-22.41543 190.35153,-16.95753 14.76834,0.8052 41.99334,1.93367 60.5,2.50772 74.1293,2.29938 96.71822,3.48941 124.14847,6.54035 18.9574,2.10854 50.69961,3.42791 83.5,3.47068 66.31621,0.0865 118.54023,5.9928 160.5,18.151919 5.775,1.673481 21.075,6.861205 34,11.528276 12.925,4.66707 29.575,10.079499 37,12.02762 11.99521,3.14722 15.28346,3.595166 29.5,4.018681 16.65143,0.496051 15.99268,0.575849 41.65694,-5.046213 8.27181,-1.812039 12.78389,-1.032417 14.79856,2.556979 3.11069,5.542076 -2.67099,18.639576 -19.91927,45.124017 -6.00992,9.22814 -11.51405,18.1043802 -12.2314,19.7249702 -3.11399,7.035 -20.00537,8.52113 -38.80483,3.41412002 -7.90263,-2.14681002 -12.72632,-2.85263002 -19.5,-2.85329002 -10.23945,-10e-4 -15.38642,1.77400003 -24.00587,8.27879 -14.47764,10.9257498 -24.24219,11.3758898 -53.37815,2.4607 -19.14317,-5.85754 -26.58534,-7.37909998 -36.09226,-7.37909998 -9.98523,0 -18.04106,2.47095998 -26.18968,8.03315998 -11.52508,7.8669498 -15.93498,9.3755398 -28.33404,9.6928898 -9.08301,0.23247 -12.48131,-0.12952 -19.5,-2.07715 z"
       id="path865"
       inkscape:connector-curvature="0"
       transform="scale(0.26458333)" />
    <path
       style="opacity:0;fill:#000000;fill-opacity:1;stroke:#2c2f33;stroke-opacity:1"
       d="M 548.52141,16.488469 C 538.21557,13.628689 531.9251,11.208659 510.60187,1.9002892 484.60384,-9.4488107 480.21529,-10.543111 460.52141,-10.587421 c -21.79075,-0.049 -26.45544,1.1761303 -64.08335,16.8312002 -12.52957,5.2129198 -22.21031,6.9633498 -34.91665,6.3134698 -16.6135,-0.84971 -29.09066,-5.6231498 -47.43361,-18.1468498 -12.53216,-8.5563802 -18.79467,-10.8656602 -29.56639,-10.9025202 -11.23431,-0.0385 -16.28136,1.56347 -40.70595,12.9199402 C 220.0602,7.4730892 209.72812,10.775059 196.52141,11.542289 178.80505,12.571499 169.04869,8.7556792 153.98256,-5.0951308 140.02813,-17.923911 130.22303,-21.972541 117.5263,-20.148301 105.39729,-18.405631 93.892289,-11.760011 78.821983,2.2084292 64.763517,15.239019 60.650979,15.583879 30.748273,6.2397692 19.412112,2.6974092 10.418924,0.49405922 5.8024969,0.12800922 -2.9583971,-0.56667078 -6.6411735,-2.6003508 -9.5886562,-8.3712007 -14.319368,-17.633421 -12.875532,-39.416385 -6.4216143,-56.151953 0.67419188,-74.551991 23.453359,-94.784596 50.52141,-106.72912 c 40.817989,-18.01206 90.24669,-22.41543 190.35153,-16.95753 14.76834,0.8052 41.99334,1.93367 60.5,2.50772 74.1293,2.29938 96.71822,3.48941 124.14847,6.54035 18.9574,2.10854 50.69961,3.42791 83.5,3.47068 66.31621,0.0865 118.54023,5.9928 160.5,18.151919 5.775,1.673481 21.075,6.861205 34,11.528276 12.925,4.66707 29.575,10.079499 37,12.02762 11.99521,3.14722 15.28346,3.595166 29.5,4.018681 16.65143,0.496051 15.99268,0.575849 41.65694,-5.046213 8.27181,-1.812039 12.78389,-1.032417 14.79856,2.556979 3.11069,5.542076 -2.67099,18.639576 -19.91927,45.124017 -6.00992,9.22814 -11.51405,18.1043802 -12.2314,19.7249702 -3.11399,7.035 -20.00537,8.52113 -38.80483,3.41412002 -7.90263,-2.14681002 -12.72632,-2.85263002 -19.5,-2.85329002 -10.23945,-10e-4 -15.38642,1.77400003 -24.00587,8.27879 -14.47764,10.9257498 -24.24219,11.3758898 -53.37815,2.4607 -19.14317,-5.85754 -26.58534,-7.37909998 -36.09226,-7.37909998 -9.98523,0 -18.04106,2.47095998 -26.18968,8.03315998 -11.52508,7.8669498 -15.93498,9.3755398 -28.33404,9.6928898 -9.08301,0.23247 -12.48131,-0.12952 -19.5,-2.07715 z"
       id="path867"
       inkscape:connector-curvature="0"
       transform="scale(0.26458333)" />
    <path
       style="opacity:0;fill:#000000;fill-opacity:1;stroke:#2c2f33;stroke-opacity:1"
       d="M 548.52141,16.488469 C 538.21557,13.628689 531.9251,11.208659 510.60187,1.9002892 484.60384,-9.4488107 480.21529,-10.543111 460.52141,-10.587421 c -21.79075,-0.049 -26.45544,1.1761303 -64.08335,16.8312002 -12.52957,5.2129198 -22.21031,6.9633498 -34.91665,6.3134698 -16.6135,-0.84971 -29.09066,-5.6231498 -47.43361,-18.1468498 -12.53216,-8.5563802 -18.79467,-10.8656602 -29.56639,-10.9025202 -11.23431,-0.0385 -16.28136,1.56347 -40.70595,12.9199402 C 220.0602,7.4730892 209.72812,10.775059 196.52141,11.542289 178.80505,12.571499 169.04869,8.7556792 153.98256,-5.0951308 140.02813,-17.923911 130.22303,-21.972541 117.5263,-20.148301 105.39729,-18.405631 93.892289,-11.760011 78.821983,2.2084292 64.763517,15.239019 60.650979,15.583879 30.748273,6.2397692 19.412112,2.6974092 10.418924,0.49405922 5.8024969,0.12800922 -2.9583971,-0.56667078 -6.6411735,-2.6003508 -9.5886562,-8.3712007 -14.319368,-17.633421 -12.875532,-39.416385 -6.4216143,-56.151953 0.67419188,-74.551991 23.453359,-94.784596 50.52141,-106.72912 c 40.817989,-18.01206 90.24669,-22.41543 190.35153,-16.95753 14.76834,0.8052 41.99334,1.93367 60.5,2.50772 74.1293,2.29938 96.71822,3.48941 124.14847,6.54035 18.9574,2.10854 50.69961,3.42791 83.5,3.47068 66.31621,0.0865 118.54023,5.9928 160.5,18.151919 5.775,1.673481 21.075,6.861205 34,11.528276 12.925,4.66707 29.575,10.079499 37,12.02762 11.99521,3.14722 15.28346,3.595166 29.5,4.018681 16.65143,0.496051 15.99268,0.575849 41.65694,-5.046213 8.27181,-1.812039 12.78389,-1.032417 14.79856,2.556979 3.11069,5.542076 -2.67099,18.639576 -19.91927,45.124017 -6.00992,9.22814 -11.51405,18.1043802 -12.2314,19.7249702 -3.11399,7.035 -20.00537,8.52113 -38.80483,3.41412002 -7.90263,-2.14681002 -12.72632,-2.85263002 -19.5,-2.85329002 -10.23945,-10e-4 -15.38642,1.77400003 -24.00587,8.27879 -14.47764,10.9257498 -24.24219,11.3758898 -53.37815,2.4607 -19.14317,-5.85754 -26.58534,-7.37909998 -36.09226,-7.37909998 -9.98523,0 -18.04106,2.47095998 -26.18968,8.03315998 -11.52508,7.8669498 -15.93498,9.3755398 -28.33404,9.6928898 -9.08301,0.23247 -12.48131,-0.12952 -19.5,-2.07715 z"
       id="path869"
       inkscape:connector-curvature="0"
       transform="scale(0.26458333)" />
    <path
       style="opacity:0;fill:#000000;fill-opacity:1;stroke:#2c2f33;stroke-opacity:1"
       d="M 548.52141,16.488469 C 538.21557,13.628689 531.9251,11.208659 510.60187,1.9002892 484.60384,-9.4488107 480.21529,-10.543111 460.52141,-10.587421 c -21.79075,-0.049 -26.45544,1.1761303 -64.08335,16.8312002 -12.52957,5.2129198 -22.21031,6.9633498 -34.91665,6.3134698 -16.6135,-0.84971 -29.09066,-5.6231498 -47.43361,-18.1468498 -12.53216,-8.5563802 -18.79467,-10.8656602 -29.56639,-10.9025202 -11.23431,-0.0385 -16.28136,1.56347 -40.70595,12.9199402 C 220.0602,7.4730892 209.72812,10.775059 196.52141,11.542289 178.80505,12.571499 169.04869,8.7556792 153.98256,-5.0951308 140.02813,-17.923911 130.22303,-21.972541 117.5263,-20.148301 105.39729,-18.405631 93.892289,-11.760011 78.821983,2.2084292 64.763517,15.239019 60.650979,15.583879 30.748273,6.2397692 19.412112,2.6974092 10.418924,0.49405922 5.8024969,0.12800922 -2.9583971,-0.56667078 -6.6411735,-2.6003508 -9.5886562,-8.3712007 -14.319368,-17.633421 -12.875532,-39.416385 -6.4216143,-56.151953 0.67419188,-74.551991 23.453359,-94.784596 50.52141,-106.72912 c 40.817989,-18.01206 90.24669,-22.41543 190.35153,-16.95753 14.76834,0.8052 41.99334,1.93367 60.5,2.50772 74.1293,2.29938 96.71822,3.48941 124.14847,6.54035 18.9574,2.10854 50.69961,3.42791 83.5,3.47068 66.31621,0.0865 118.54023,5.9928 160.5,18.151919 5.775,1.673481 21.075,6.861205 34,11.528276 12.925,4.66707 29.575,10.079499 37,12.02762 11.99521,3.14722 15.28346,3.595166 29.5,4.018681 16.65143,0.496051 15.99268,0.575849 41.65694,-5.046213 8.27181,-1.812039 12.78389,-1.032417 14.79856,2.556979 3.11069,5.542076 -2.67099,18.639576 -19.91927,45.124017 -6.00992,9.22814 -11.51405,18.1043802 -12.2314,19.7249702 -3.11399,7.035 -20.00537,8.52113 -38.80483,3.41412002 -7.90263,-2.14681002 -12.72632,-2.85263002 -19.5,-2.85329002 -10.23945,-10e-4 -15.38642,1.77400003 -24.00587,8.27879 -14.47764,10.9257498 -24.24219,11.3758898 -53.37815,2.4607 -19.14317,-5.85754 -26.58534,-7.37909998 -36.09226,-7.37909998 -9.98523,0 -18.04106,2.47095998 -26.18968,8.03315998 -11.52508,7.8669498 -15.93498,9.3755398 -28.33404,9.6928898 -9.08301,0.23247 -12.48131,-0.12952 -19.5,-2.07715 z"
       id="path871"
       inkscape:connector-curvature="0"
       transform="scale(0.26458333)" />
    <path
       style="opacity:0;fill:#000000;fill-opacity:1;stroke:#2c2f33;stroke-opacity:1"
       d="M 548.52141,16.488469 C 538.21557,13.628689 531.9251,11.208659 510.60187,1.9002892 484.60384,-9.4488107 480.21529,-10.543111 460.52141,-10.587421 c -21.79075,-0.049 -26.45544,1.1761303 -64.08335,16.8312002 -12.52957,5.2129198 -22.21031,6.9633498 -34.91665,6.3134698 -16.6135,-0.84971 -29.09066,-5.6231498 -47.43361,-18.1468498 -12.53216,-8.5563802 -18.79467,-10.8656602 -29.56639,-10.9025202 -11.23431,-0.0385 -16.28136,1.56347 -40.70595,12.9199402 C 220.0602,7.4730892 209.72812,10.775059 196.52141,11.542289 178.80505,12.571499 169.04869,8.7556792 153.98256,-5.0951308 140.02813,-17.923911 130.22303,-21.972541 117.5263,-20.148301 105.39729,-18.405631 93.892289,-11.760011 78.821983,2.2084292 64.763517,15.239019 60.650979,15.583879 30.748273,6.2397692 19.412112,2.6974092 10.418924,0.49405922 5.8024969,0.12800922 -2.9583971,-0.56667078 -6.6411735,-2.6003508 -9.5886562,-8.3712007 -14.319368,-17.633421 -12.875532,-39.416385 -6.4216143,-56.151953 0.67419188,-74.551991 23.453359,-94.784596 50.52141,-106.72912 c 40.817989,-18.01206 90.24669,-22.41543 190.35153,-16.95753 14.76834,0.8052 41.99334,1.93367 60.5,2.50772 74.1293,2.29938 96.71822,3.48941 124.14847,6.54035 18.9574,2.10854 50.69961,3.42791 83.5,3.47068 66.31621,0.0865 118.54023,5.9928 160.5,18.151919 5.775,1.673481 21.075,6.861205 34,11.528276 12.925,4.66707 29.575,10.079499 37,12.02762 11.99521,3.14722 15.28346,3.595166 29.5,4.018681 16.65143,0.496051 15.99268,0.575849 41.65694,-5.046213 8.27181,-1.812039 12.78389,-1.032417 14.79856,2.556979 3.11069,5.542076 -2.67099,18.639576 -19.91927,45.124017 -6.00992,9.22814 -11.51405,18.1043802 -12.2314,19.7249702 -3.11399,7.035 -20.00537,8.52113 -38.80483,3.41412002 -7.90263,-2.14681002 -12.72632,-2.85263002 -19.5,-2.85329002 -10.23945,-10e-4 -15.38642,1.77400003 -24.00587,8.27879 -14.47764,10.9257498 -24.24219,11.3758898 -53.37815,2.4607 -19.14317,-5.85754 -26.58534,-7.37909998 -36.09226,-7.37909998 -9.98523,0 -18.04106,2.47095998 -26.18968,8.03315998 -11.52508,7.8669498 -15.93498,9.3755398 -28.33404,9.6928898 -9.08301,0.23247 -12.48131,-0.12952 -19.5,-2.07715 z"
       id="path873"
       inkscape:connector-curvature="0"
       transform="scale(0.26458333)" />
    <path
       style="opacity:0;fill:#000080;fill-opacity:1;stroke:#2c2f33;stroke-opacity:1"
       d="m 546.41206,163.44489 c -9.24306,-2.0271 -16.7561,-4.79627 -39.28772,-14.48078 -29.58912,-12.71794 -32.91341,-13.55988 -53.21228,-13.47696 -19.72497,0.0806 -28.03941,1.9306 -49.24451,10.95725 -20.97829,8.93009 -29.86225,11.58651 -40.81897,12.20542 -18.63914,1.05285 -33.25007,-3.4784 -52.5816,-16.307 -18.18867,-12.07019 -27.12037,-14.82295 -40.32557,-12.42839 -9.42859,1.70973 -13.66221,3.30654 -33.02935,12.45783 -24.94652,11.78765 -37.51527,15.54749 -51.97356,15.54749 -14.29749,0 -25.31808,-4.97439 -38.93151,-17.5726 -14.35941,-13.28856 -24.1415,-16.90391 -37.94803,-14.02517 -11.814341,2.46336 -21.66532,8.3959 -35.199412,21.19808 -10.419562,9.85608 -12.638192,10.92025 -22.447488,10.76696 -6.702131,-0.10473 -10.946108,-1.04238 -26.15966,-5.77963 -10.925407,-3.40199 -21.4821951,-6.02779 -26.5000001,-6.59138 -7.687762,-0.86346 -8.589923,-1.20665 -11.5301589,-4.38616 -4.151958,-4.48983 -5.611292,-10.0467 -5.543884,-21.1101 0.05954,-9.7713 1.889292,-19.78051 5.316102,-29.080346 C -4.4532291,68.129746 24.367276,45.266873 60.466594,33.055062 93.31573,21.942736 141.53092,17.919698 205.91206,20.919205 c 11.275,0.525301 34.9,1.632956 52.5,2.461457 17.6,0.828502 48.425,1.976241 68.5,2.550532 41.70633,1.193105 60.3912,2.240369 88,4.932292 30.76492,2.999652 32.67223,3.088664 87,4.060194 98.11297,1.754529 133.18361,7.047789 195.52226,29.510447 13.18776,4.751979 30.05274,10.233091 37.47774,12.180248 11.85686,3.109381 15.38657,3.598855 29,4.021495 13.28345,0.412395 16.93003,0.174894 25.5,-1.660813 5.5,-1.178113 13.20422,-2.827901 17.1205,-3.666195 6.4235,-1.374976 7.48754,-1.370809 10.87024,0.04258 l 3.74976,1.566746 -0.43018,5.947115 c -0.55965,7.737034 -5.20147,17.065487 -20.0116,40.216347 -6.2143,9.71405 -12.02129,18.97489 -12.90444,20.57965 -3.64838,6.62944 -18.90882,7.53096 -39.89428,2.35678 -10.70069,-2.63837 -14.86733,-3.23102 -20.09412,-2.85812 -7.25987,0.51794 -15.70915,3.86423 -21.74177,8.61072 -13.56365,10.67191 -24.55344,11.22751 -52.67334,2.66298 -21.58978,-6.57563 -28.16216,-7.80239 -39.30141,-7.33575 -10.94364,0.45845 -16.25819,2.39072 -26.63329,9.68332 -10.87371,7.64307 -25.65266,10.04178 -41.05607,6.66366 z"
       id="path901"
       inkscape:connector-curvature="0"
       transform="scale(0.26458333)" />
    <path
       style="fill:#000000;fill-opacity:1;stroke:#000000;stroke-width:0.26458332px;stroke-linecap:butt;stroke-linejoin:miter;stroke-opacity:1"
       d="m -46.0375,72.46559 c -1.381418,-6.258458 8.393006,-20.078362 13.214959,-11.655873 3.221222,5.626497 7.99005,19.951162 16.236473,13.590638 6.096794,-4.7025 12.4868914,-20.136883 21.2475283,-8.375554 8.1435427,10.932868 9.7333567,-12.921585 18.1263597,-11.077374 9.299343,2.043363 5.315932,26.771523 14.315772,18.501236 4.139146,-3.803615 6.513525,-21.346032 12.711062,-8.941732 4.641291,9.289491 12.417781,-8.831038 13.156178,-4.74134 1.406577,7.790489 3.104593,13.297317 11.313014,3.427109 5.602905,-6.737208 3.37231,4.211192 12.115532,10.239271 3.014768,2.078554 11.184378,-23.888142 14.439572,-11.731982 2.74027,10.233233 13.5277,13.953594 22.27665,4.37276 7.13758,-7.816248 11.70552,0.556015 18.20497,5.036852 10.29194,7.095449 16.9624,-12.187248 24.80045,-8.240618 6.99523,3.522252 9.50069,14.831459 20.11257,10.886451 5.96301,-2.216773 8.36828,-19.213977 13.88912,-7.616688 4.88126,10.253768 6.31192,-9.140185 13.39297,0.161201 7.44675,9.781757 15.62869,-12.154446 18.35635,-2.784835 1.73215,5.950005 8.37623,26.342784 12.8427,13.869464 2.9237,-8.164899 7.28705,-9.592479 16.39287,-4.435611 8.12816,4.603193 10.26389,-3.04457 21.41216,-4.44357 8.66186,-1.08698 14.66332,-6.224624 15.17226,-16.768358 C 298.20628,41.083053 293.83324,30.076425 285.08664,24.590644 276.85059,19.425073 267.50379,15.556061 258.11786,13.64569 247.27871,11.439538 236.64191,9.2672949 225.425,7.9072571 215.53945,6.7086456 205.90709,3.7384354 196.02288,3.0918967 184.81666,2.3588837 173.79661,2.8803189 162.46203,2.3161744 149.95971,1.6939092 137.40554,3.7370685 124.98118,4.0074565 113.62983,4.254493 101.36918,1.7019909 90.4875,5.2614238 81.1161,8.3268383 71.179034,9.5888708 61.530257,11.450004 51.68811,13.348436 42.128712,13.474797 32.513842,16.69575 c -8.885468,2.976606 -18.130276,1.387152 -27.2063746,2.496591 -10.9650484,1.34034 -25.5740634,-0.4636 -32.1045024,9.204856 -5.783999,8.563336 -19.349018,9.928986 -21.440342,21.270359 -1.407555,7.633252 -7.782455,18.327728 2.199877,22.798034 z"
       id="path835"
       inkscape:connector-curvature="0"
       inkscape:path-effect="#path-effect837"
       inkscape:original-d="m -46.0375,72.46559 c -1.956723,-4.437274 7.0666,-17.804233 11.1125,-13.758333 1.234722,1.234721 2.469444,2.469444 3.704166,3.704167 1.067472,1.067469 1.257991,6.549657 2.645834,7.9375 1.434767,1.434766 2.672641,2.143474 3.704166,3.175 0.374748,0.374748 4.867218,4.128614 6.879167,2.116666 1.763889,-1.763889 4.056944,-2.998612 5.820833,-4.7625 2.083789,-2.083789 3.1033592,-5.749192 5.2916668,-7.937499 0.7779623,-0.777963 3.3932809,-1.5875 4.7624999,-1.5875 5.45397,0 5.7820162,4.194516 8.4666666,6.879166 1.4435084,1.443509 5.3277297,1.058333 4.7624997,1.058333 -2.361623,0 0.735465,-0.735464 1.058334,-1.058333 1.214805,-1.214805 8.406738,-16.464094 12.170833,-12.7 0.780515,0.780513 1.997207,1.468041 2.645833,2.116667 2.464369,2.464369 -0.839227,12.015803 6.879167,15.875 6.69613,3.348064 7.820577,-14.2875 12.170833,-14.2875 2.080606,0 3.49722,5.613887 4.7625,6.879167 7.992417,7.992416 9.878189,-8.642647 12.170833,-6.35 2.25761,2.257607 3.661182,12.986075 8.466666,10.583333 1.510618,-0.755309 3.2188,-10.539534 4.233334,-9.525 0.882176,0.882176 1.524288,0.995119 2.116666,1.5875 0.881944,0.881943 -0.352777,3.880554 0.529167,4.7625 1.065657,1.065657 1.5875,2.726264 1.5875,4.233333 0,1.697961 7.987728,2.116667 7.408333,2.116667 -3.058467,0 0.907524,-0.37836 1.058334,-0.529167 0.79375,-0.79375 0.79375,-2.38125 1.5875,-3.175 1.234723,-1.234723 0.352776,-4.586113 1.5875,-5.820833 0.564766,-0.564766 5.72817,-6.442662 6.879166,-5.291667 3.683992,3.683995 5.173182,8.87735 8.466662,12.170833 1.30668,1.30668 5.567,0.666832 7.40834,1.5875 0.39343,0.196715 2.05723,1.117764 2.64583,0.529167 4.34758,-4.347578 6.98987,-10.583333 15.34583,-10.583333 0.32292,0 1.91049,-0.206185 2.11667,0 2.50466,2.504662 3.5931,5.709764 6.35,8.466666 0.52917,0.529167 2.11667,0 2.64583,0.529167 4.19213,4.19213 13.11491,0.228526 14.81667,-3.175 0.78271,-1.565428 6.41422,-7.344113 8.99583,-4.7625 1.23473,1.234721 2.99861,1.940277 4.23334,3.175 0.44097,0.440971 0.0882,1.675694 0.52916,2.116667 2.64223,2.642227 3.76803,4.529846 7.40834,6.35 1.7562,0.878102 4.19083,-0.48667 4.7625,-1.058334 0.52916,-0.529166 2.11666,0 2.64583,-0.529166 1.05833,-1.058334 2.11667,-2.116667 3.175,-3.175 2.07652,-2.076522 2.87268,-6.576846 4.7625,-8.466667 1.46233,-1.462333 6.97671,6.447536 7.9375,7.408333 1.80316,1.803157 4.33131,-4.86048 5.29167,-5.820833 1.04785,-1.047856 7.30415,4.129154 8.46666,5.291667 0.20619,0.206182 1.79375,0 2.11667,0 5.4293,0 3.29349,-2.764327 6.35,-5.820833 0.70556,-0.705557 2.99861,0.176387 3.70417,-0.529167 0.10726,-0.107265 1.43256,-1.213271 2.11666,-0.529167 3.54909,3.549089 3.02289,14.135391 6.35,17.4625 0.52917,0.529167 1.5875,0.529167 2.11667,1.058333 4.13356,4.133559 8.79239,-11.641666 11.64167,-11.641666 0.70556,0 1.61776,0.498903 2.11666,0 0.0299,-0.0299 1.0159,-1.629945 1.5875,-1.058334 3.77129,3.771302 9.71426,8.277419 12.17084,5.820834 2.38125,-2.38125 5.55625,-3.96875 7.9375,-6.35 2.18945,-2.189454 6.15082,2.480839 8.99583,1.058333 0.49059,-0.24529 2.92224,-0.276399 3.175,-0.529167 0.93607,-0.936069 1.26685,-2.116666 3.175,-2.116666 0.88195,0.176389 1.74642,0.529167 2.64584,0.529166 0.40723,0 0.29068,-1.349016 0.52916,-1.5875 1.37566,-1.375655 2.17293,-3.760422 3.70417,-5.291666 1.47639,-1.47639 0.94436,-16.518142 -1.05833,-18.520834 -0.44269,-0.442684 -0.0289,-2.674747 -0.52917,-3.175 -2.78109,-2.781086 -5.36492,-8.539919 -8.99583,-12.170833 -1.35581,-1.355804 -3.8248,-1.178964 -5.29167,-2.645833 -4.94441,-4.944411 -16.22641,-5.113909 -19.57917,-8.466667 -0.85325,-0.853254 -8.94066,-0.474 -10.58333,-2.116667 -0.98156,-0.981559 -8.10219,-0.244604 -9.525,-0.529166 -6.27767,-1.255535 -10.38965,-2.6070966 -15.875,-3.7041669 -6.75806,-1.3516119 -13.99946,-0.9623201 -20.6375,-3.175 -2.50174,-0.8339115 -4.09593,0.0687 -6.35,-1.0583333 -4.36536,-2.1826815 -26.87698,1.1135947 -30.1625,-0.5291667 -3.41217,-1.7060847 -35.94066,-1.3442555 -39.6875,0.5291667 -2.6191,1.3095482 -7.30129,-0.9176267 -10.05417,0 -6.50608,2.1686936 -24.799016,-0.035907 -28.04583,1.5875 -4.952193,2.4760965 -17.090771,3.2274792 -23.283334,5.2916662 -3.523992,1.174665 -7.902265,0.51155 -11.1125,2.116667 -1.960096,0.980048 -6.475932,-0.932401 -7.9375,0.529167 -2.649864,2.649864 -8.137348,0.364507 -11.641666,2.116666 -4.19113,2.095565 -13.744842,3.175 -19.05,3.175 -2.701489,0 -6.977449,-0.849183 -9.5250003,0 -3.226336,1.075446 -7.78872165,1.5875 -11.1125,1.5875 -5.7491893,0 -19.1985627,3.852729 -22.7541667,7.408334 -2.292117,2.292117 -4.736665,5.807916 -7.9375,7.408333 -5.316447,2.658224 -8.355344,5.180344 -12.170833,8.995833 -1.384075,1.384075 -7.075325,22.028843 -5.291667,23.8125 1.668903,1.668904 2.617178,2.979509 5.291667,4.7625 z"
       transform="matrix(1.5747469,0,0,1,29.870975,0)"
       clip-path="url(#clipPath849)" />
    <path
       clip-path="url(#clipPath849)"
       transform="matrix(1.5747469,0,0,1,30.383606,-0.01653646)"
       inkscape:original-d="m -46.0375,72.46559 c -1.956723,-4.437274 7.0666,-17.804233 11.1125,-13.758333 1.234722,1.234721 2.469444,2.469444 3.704166,3.704167 1.067472,1.067469 1.257991,6.549657 2.645834,7.9375 1.434767,1.434766 2.672641,2.143474 3.704166,3.175 0.374748,0.374748 4.867218,4.128614 6.879167,2.116666 1.763889,-1.763889 4.056944,-2.998612 5.820833,-4.7625 2.083789,-2.083789 3.1033592,-5.749192 5.2916668,-7.937499 0.7779623,-0.777963 3.3932809,-1.5875 4.7624999,-1.5875 5.45397,0 5.7820162,4.194516 8.4666666,6.879166 1.4435084,1.443509 5.3277297,1.058333 4.7624997,1.058333 -2.361623,0 0.735465,-0.735464 1.058334,-1.058333 1.214805,-1.214805 8.406738,-16.464094 12.170833,-12.7 0.780515,0.780513 1.997207,1.468041 2.645833,2.116667 2.464369,2.464369 -0.839227,12.015803 6.879167,15.875 6.69613,3.348064 7.820577,-14.2875 12.170833,-14.2875 2.080606,0 3.49722,5.613887 4.7625,6.879167 7.992417,7.992416 9.878189,-8.642647 12.170833,-6.35 2.25761,2.257607 3.661182,12.986075 8.466666,10.583333 1.510618,-0.755309 3.2188,-10.539534 4.233334,-9.525 0.882176,0.882176 1.524288,0.995119 2.116666,1.5875 0.881944,0.881943 -0.352777,3.880554 0.529167,4.7625 1.065657,1.065657 1.5875,2.726264 1.5875,4.233333 0,1.697961 7.987728,2.116667 7.408333,2.116667 -3.058467,0 0.907524,-0.37836 1.058334,-0.529167 0.79375,-0.79375 0.79375,-2.38125 1.5875,-3.175 1.234723,-1.234723 0.352776,-4.586113 1.5875,-5.820833 0.564766,-0.564766 5.72817,-6.442662 6.879166,-5.291667 3.683992,3.683995 5.173182,8.87735 8.466662,12.170833 1.30668,1.30668 5.567,0.666832 7.40834,1.5875 0.39343,0.196715 2.05723,1.117764 2.64583,0.529167 4.34758,-4.347578 6.98987,-10.583333 15.34583,-10.583333 0.32292,0 1.91049,-0.206185 2.11667,0 2.50466,2.504662 3.5931,5.709764 6.35,8.466666 0.52917,0.529167 2.11667,0 2.64583,0.529167 4.19213,4.19213 13.11491,0.228526 14.81667,-3.175 0.78271,-1.565428 6.41422,-7.344113 8.99583,-4.7625 1.23473,1.234721 2.99861,1.940277 4.23334,3.175 0.44097,0.440971 0.0882,1.675694 0.52916,2.116667 2.64223,2.642227 3.76803,4.529846 7.40834,6.35 1.7562,0.878102 4.19083,-0.48667 4.7625,-1.058334 0.52916,-0.529166 2.11666,0 2.64583,-0.529166 1.05833,-1.058334 2.11667,-2.116667 3.175,-3.175 2.07652,-2.076522 2.87268,-6.576846 4.7625,-8.466667 1.46233,-1.462333 6.97671,6.447536 7.9375,7.408333 1.80316,1.803157 4.33131,-4.86048 5.29167,-5.820833 1.04785,-1.047856 7.30415,4.129154 8.46666,5.291667 0.20619,0.206182 1.79375,0 2.11667,0 5.4293,0 3.29349,-2.764327 6.35,-5.820833 0.70556,-0.705557 2.99861,0.176387 3.70417,-0.529167 0.10726,-0.107265 1.43256,-1.213271 2.11666,-0.529167 3.54909,3.549089 3.02289,14.135391 6.35,17.4625 0.52917,0.529167 1.5875,0.529167 2.11667,1.058333 4.13356,4.133559 8.79239,-11.641666 11.64167,-11.641666 0.70556,0 1.61776,0.498903 2.11666,0 0.0299,-0.0299 1.0159,-1.629945 1.5875,-1.058334 3.77129,3.771302 9.71426,8.277419 12.17084,5.820834 2.38125,-2.38125 5.55625,-3.96875 7.9375,-6.35 2.18945,-2.189454 6.15082,2.480839 8.99583,1.058333 0.49059,-0.24529 2.92224,-0.276399 3.175,-0.529167 0.93607,-0.936069 1.26685,-2.116666 3.175,-2.116666 0.88195,0.176389 1.74642,0.529167 2.64584,0.529166 0.40723,0 0.29068,-1.349016 0.52916,-1.5875 1.37566,-1.375655 2.17293,-3.760422 3.70417,-5.291666 1.47639,-1.47639 0.94436,-16.518142 -1.05833,-18.520834 -0.44269,-0.442684 -0.0289,-2.674747 -0.52917,-3.175 -2.78109,-2.781086 -5.36492,-8.539919 -8.99583,-12.170833 -1.35581,-1.355804 -3.8248,-1.178964 -5.29167,-2.645833 -4.94441,-4.944411 -16.22641,-5.113909 -19.57917,-8.466667 -0.85325,-0.853254 -8.94066,-0.474 -10.58333,-2.116667 -0.98156,-0.981559 -8.10219,-0.244604 -9.525,-0.529166 -6.27767,-1.255535 -10.38965,-2.6070966 -15.875,-3.7041669 -6.75806,-1.3516119 -13.99946,-0.9623201 -20.6375,-3.175 -2.50174,-0.8339115 -4.09593,0.0687 -6.35,-1.0583333 -4.36536,-2.1826815 -26.87698,1.1135947 -30.1625,-0.5291667 -3.41217,-1.7060847 -35.94066,-1.3442555 -39.6875,0.5291667 -2.6191,1.3095482 -7.30129,-0.9176267 -10.05417,0 -6.50608,2.1686936 -24.799016,-0.035907 -28.04583,1.5875 -4.952193,2.4760965 -17.090771,3.2274792 -23.283334,5.2916662 -3.523992,1.174665 -7.902265,0.51155 -11.1125,2.116667 -1.960096,0.980048 -6.475932,-0.932401 -7.9375,0.529167 -2.649864,2.649864 -8.137348,0.364507 -11.641666,2.116666 -4.19113,2.095565 -13.744842,3.175 -19.05,3.175 -2.701489,0 -6.977449,-0.849183 -9.5250003,0 -3.226336,1.075446 -7.78872165,1.5875 -11.1125,1.5875 -5.7491893,0 -19.1985627,3.852729 -22.7541667,7.408334 -2.292117,2.292117 -4.736665,5.807916 -7.9375,7.408333 -5.316447,2.658224 -8.355344,5.180344 -12.170833,8.995833 -1.384075,1.384075 -7.075325,22.028843 -5.291667,23.8125 1.668903,1.668904 2.617178,2.979509 5.291667,4.7625 z"
       inkscape:path-effect="#path-effect832"
       inkscape:connector-curvature="0"
       id="path830"
       d="m -46.0375,72.46559 c -1.381418,-6.258458 8.393006,-20.078362 13.214959,-11.655873 3.221222,5.626497 7.99005,19.951162 16.236473,13.590638 6.096794,-4.7025 12.4868914,-20.136883 21.2475283,-8.375554 8.1435427,10.932868 9.7333567,-12.921585 18.1263597,-11.077374 9.299343,2.043363 5.315932,26.771523 14.315772,18.501236 4.139146,-3.803615 6.513525,-21.346032 12.711062,-8.941732 4.641291,9.289491 12.417781,-8.831038 13.156178,-4.74134 1.406577,7.790489 3.104593,13.297317 11.313014,3.427109 5.602905,-6.737208 3.37231,4.211192 12.115532,10.239271 3.014768,2.078554 11.184378,-23.888142 14.439572,-11.731982 2.74027,10.233233 13.5277,13.953594 22.27665,4.37276 7.13758,-7.816248 11.70552,0.556015 18.20497,5.036852 10.29194,7.095449 16.9624,-12.187248 24.80045,-8.240618 6.99523,3.522252 9.50069,14.831459 20.11257,10.886451 5.96301,-2.216773 8.36828,-19.213977 13.88912,-7.616688 4.88126,10.253768 6.31192,-9.140185 13.39297,0.161201 7.44675,9.781757 15.62869,-12.154446 18.35635,-2.784835 1.73215,5.950005 8.37623,26.342784 12.8427,13.869464 2.9237,-8.164899 7.28705,-9.592479 16.39287,-4.435611 8.12816,4.603193 10.26389,-3.04457 21.41216,-4.44357 8.66186,-1.08698 14.66332,-6.224624 15.17226,-16.768358 C 298.20628,41.083053 293.83324,30.076425 285.08664,24.590644 276.85059,19.425073 267.50379,15.556061 258.11786,13.64569 247.27871,11.439538 236.64191,9.2672949 225.425,7.9072571 215.53945,6.7086456 205.90709,3.7384354 196.02288,3.0918967 184.81666,2.3588837 173.79661,2.8803189 162.46203,2.3161744 149.95971,1.6939092 137.40554,3.7370685 124.98118,4.0074565 113.62983,4.254493 101.36918,1.7019909 90.4875,5.2614238 81.1161,8.3268383 71.179034,9.5888708 61.530257,11.450004 51.68811,13.348436 42.128712,13.474797 32.513842,16.69575 c -8.885468,2.976606 -18.130276,1.387152 -27.2063746,2.496591 -10.9650484,1.34034 -25.5740634,-0.4636 -32.1045024,9.204856 -5.783999,8.563336 -19.349018,9.928986 -21.440342,21.270359 -1.407555,7.633252 -7.782455,18.327728 2.199877,22.798034 z"
       style="fill:#39446d;fill-opacity:1;stroke:#39446d;stroke-width:0.26458332px;stroke-linecap:butt;stroke-linejoin:miter;stroke-opacity:1" />
  </g>
</svg>
