<?xml version="1.0" encoding="UTF-8" standalone="no"?>
<!-- Created with Inkscape (http://www.inkscape.org/) -->

<svg
   xmlns:dc="http://purl.org/dc/elements/1.1/"
   xmlns:cc="http://creativecommons.org/ns#"
   xmlns:rdf="http://www.w3.org/1999/02/22-rdf-syntax-ns#"
   xmlns:svg="http://www.w3.org/2000/svg"
   xmlns="http://www.w3.org/2000/svg"
   xmlns:sodipodi="http://sodipodi.sourceforge.net/DTD/sodipodi-0.dtd"
   xmlns:inkscape="http://www.inkscape.org/namespaces/inkscape"
   width="401.63748mm"
   height="12.532256mm"
   viewBox="0 0 401.63748 12.532256"
   version="1.1"
   id="svg8"
   inkscape:version="0.92.4 (5da689c313, 2019-01-14)"
   sodipodi:docname="header.svg">
  <defs
     id="defs2">
    <inkscape:path-effect
       effect="simplify"
       id="path-effect861"
       is_visible="true"
       steps="1"
       threshold="0.0118015"
       smooth_angles="360"
       helper_size="0"
       simplify_individual_paths="false"
       simplify_just_coalesce="false"
       simplifyindividualpaths="false"
       simplifyJustCoalesce="false" />
    <inkscape:path-effect
       effect="simplify"
       id="path-effect831"
       is_visible="true"
       steps="1"
       threshold="0.0118015"
       smooth_angles="360"
       helper_size="0"
       simplify_individual_paths="false"
       simplify_just_coalesce="false"
       simplifyindividualpaths="false"
       simplifyJustCoalesce="false" />
    <clipPath
       clipPathUnits="userSpaceOnUse"
       id="clipPath940">
      <rect
         style="opacity:1;fill:#000080;fill-opacity:1;stroke:#000080;stroke-width:0.26458332;stroke-opacity:1"
         id="rect942"
         width="401.63748"
         height="16.404167"
         x="-25.929167"
         y="16.012501" />
    </clipPath>
    <clipPath
       clipPathUnits="userSpaceOnUse"
       id="clipPath944">
      <rect
         style="opacity:1;fill:#000080;fill-opacity:1;stroke:#000080;stroke-width:0.26458332;stroke-opacity:1"
         id="rect946"
         width="401.63748"
         height="16.404167"
         x="-25.929167"
         y="16.012501" />
    </clipPath>
  </defs>
  <sodipodi:namedview
     id="base"
     pagecolor="#ffffff"
     bordercolor="#666666"
     borderopacity="1.0"
     inkscape:pageopacity="0.0"
     inkscape:pageshadow="2"
     inkscape:zoom="0.5"
     inkscape:cx="677.08808"
     inkscape:cy="-3.5585997"
     inkscape:document-units="mm"
     inkscape:current-layer="layer1"
     showgrid="false"
     inkscape:window-width="1366"
     inkscape:window-height="705"
     inkscape:window-x="-8"
     inkscape:window-y="-8"
     inkscape:window-maximized="1" />
  <metadata
     id="metadata5">
    <rdf:RDF>
      <cc:Work
         rdf:about="">
        <dc:format>image/svg+xml</dc:format>
        <dc:type
           rdf:resource="http://purl.org/dc/dcmitype/StillImage" />
        <dc:title></dc:title>
      </cc:Work>
    </rdf:RDF>
  </metadata>
  <g
     inkscape:label="Calque 1"
     inkscape:groupmode="layer"
     id="layer1"
     transform="translate(25.929167,-16.012501)">
    <path
       style="opacity:0;fill:#000000;fill-opacity:1;stroke:#2c2f33;stroke-opacity:1"
       d="M 548.52141,16.488469 C 538.21557,13.628689 531.9251,11.208659 510.60187,1.9002892 484.60384,-9.4488107 480.21529,-10.543111 460.52141,-10.587421 c -21.79075,-0.049 -26.45544,1.1761303 -64.08335,16.8312002 -12.52957,5.2129198 -22.21031,6.9633498 -34.91665,6.3134698 -16.6135,-0.84971 -29.09066,-5.6231498 -47.43361,-18.1468498 -12.53216,-8.5563802 -18.79467,-10.8656602 -29.56639,-10.9025202 -11.23431,-0.0385 -16.28136,1.56347 -40.70595,12.9199402 C 220.0602,7.4730892 209.72812,10.775059 196.52141,11.542289 178.80505,12.571499 169.04869,8.7556792 153.98256,-5.0951308 140.02813,-17.923911 130.22303,-21.972541 117.5263,-20.148301 105.39729,-18.405631 93.892289,-11.760011 78.821983,2.2084292 64.763517,15.239019 60.650979,15.583879 30.748273,6.2397692 19.412112,2.6974092 10.418924,0.49405922 5.8024969,0.12800922 -2.9583971,-0.56667078 -6.6411735,-2.6003508 -9.5886562,-8.3712007 -14.319368,-17.633421 -12.875532,-39.416385 -6.4216143,-56.151953 0.67419188,-74.551991 23.453359,-94.784596 50.52141,-106.72912 c 40.817989,-18.01206 90.24669,-22.41543 190.35153,-16.95753 14.76834,0.8052 41.99334,1.93367 60.5,2.50772 74.1293,2.29938 96.71822,3.48941 124.14847,6.54035 18.9574,2.10854 50.69961,3.42791 83.5,3.47068 66.31621,0.0865 118.54023,5.9928 160.5,18.151919 5.775,1.673481 21.075,6.861205 34,11.528276 12.925,4.66707 29.575,10.079499 37,12.02762 11.99521,3.14722 15.28346,3.595166 29.5,4.018681 16.65143,0.496051 15.99268,0.575849 41.65694,-5.046213 8.27181,-1.812039 12.78389,-1.032417 14.79856,2.556979 3.11069,5.542076 -2.67099,18.639576 -19.91927,45.124017 -6.00992,9.22814 -11.51405,18.1043802 -12.2314,19.7249702 -3.11399,7.035 -20.00537,8.52113 -38.80483,3.41412002 -7.90263,-2.14681002 -12.72632,-2.85263002 -19.5,-2.85329002 -10.23945,-10e-4 -15.38642,1.77400003 -24.00587,8.27879 -14.47764,10.9257498 -24.24219,11.3758898 -53.37815,2.4607 -19.14317,-5.85754 -26.58534,-7.37909998 -36.09226,-7.37909998 -9.98523,0 -18.04106,2.47095998 -26.18968,8.03315998 -11.52508,7.8669498 -15.93498,9.3755398 -28.33404,9.6928898 -9.08301,0.23247 -12.48131,-0.12952 -19.5,-2.07715 z"
       id="path863"
       inkscape:connector-curvature="0"
       transform="scale(0.26458333)" />
    <path
       style="opacity:0;fill:#000000;fill-opacity:1;stroke:#2c2f33;stroke-opacity:1"
       d="M 548.52141,16.488469 C 538.21557,13.628689 531.9251,11.208659 510.60187,1.9002892 484.60384,-9.4488107 480.21529,-10.543111 460.52141,-10.587421 c -21.79075,-0.049 -26.45544,1.1761303 -64.08335,16.8312002 -12.52957,5.2129198 -22.21031,6.9633498 -34.91665,6.3134698 -16.6135,-0.84971 -29.09066,-5.6231498 -47.43361,-18.1468498 -12.53216,-8.5563802 -18.79467,-10.8656602 -29.56639,-10.9025202 -11.23431,-0.0385 -16.28136,1.56347 -40.70595,12.9199402 C 220.0602,7.4730892 209.72812,10.775059 196.52141,11.542289 178.80505,12.571499 169.04869,8.7556792 153.98256,-5.0951308 140.02813,-17.923911 130.22303,-21.972541 117.5263,-20.148301 105.39729,-18.405631 93.892289,-11.760011 78.821983,2.2084292 64.763517,15.239019 60.650979,15.583879 30.748273,6.2397692 19.412112,2.6974092 10.418924,0.49405922 5.8024969,0.12800922 -2.9583971,-0.56667078 -6.6411735,-2.6003508 -9.5886562,-8.3712007 -14.319368,-17.633421 -12.875532,-39.416385 -6.4216143,-56.151953 0.67419188,-74.551991 23.453359,-94.784596 50.52141,-106.72912 c 40.817989,-18.01206 90.24669,-22.41543 190.35153,-16.95753 14.76834,0.8052 41.99334,1.93367 60.5,2.50772 74.1293,2.29938 96.71822,3.48941 124.14847,6.54035 18.9574,2.10854 50.69961,3.42791 83.5,3.47068 66.31621,0.0865 118.54023,5.9928 160.5,18.151919 5.775,1.673481 21.075,6.861205 34,11.528276 12.925,4.66707 29.575,10.079499 37,12.02762 11.99521,3.14722 15.28346,3.595166 29.5,4.018681 16.65143,0.496051 15.99268,0.575849 41.65694,-5.046213 8.27181,-1.812039 12.78389,-1.032417 14.79856,2.556979 3.11069,5.542076 -2.67099,18.639576 -19.91927,45.124017 -6.00992,9.22814 -11.51405,18.1043802 -12.2314,19.7249702 -3.11399,7.035 -20.00537,8.52113 -38.80483,3.41412002 -7.90263,-2.14681002 -12.72632,-2.85263002 -19.5,-2.85329002 -10.23945,-10e-4 -15.38642,1.77400003 -24.00587,8.27879 -14.47764,10.9257498 -24.24219,11.3758898 -53.37815,2.4607 -19.14317,-5.85754 -26.58534,-7.37909998 -36.09226,-7.37909998 -9.98523,0 -18.04106,2.47095998 -26.18968,8.03315998 -11.52508,7.8669498 -15.93498,9.3755398 -28.33404,9.6928898 -9.08301,0.23247 -12.48131,-0.12952 -19.5,-2.07715 z"
       id="path865"
       inkscape:connector-curvature="0"
       transform="scale(0.26458333)" />
    <path
       style="opacity:0;fill:#000000;fill-opacity:1;stroke:#2c2f33;stroke-opacity:1"
       d="M 548.52141,16.488469 C 538.21557,13.628689 531.9251,11.208659 510.60187,1.9002892 484.60384,-9.4488107 480.21529,-10.543111 460.52141,-10.587421 c -21.79075,-0.049 -26.45544,1.1761303 -64.08335,16.8312002 -12.52957,5.2129198 -22.21031,6.9633498 -34.91665,6.3134698 -16.6135,-0.84971 -29.09066,-5.6231498 -47.43361,-18.1468498 -12.53216,-8.5563802 -18.79467,-10.8656602 -29.56639,-10.9025202 -11.23431,-0.0385 -16.28136,1.56347 -40.70595,12.9199402 C 220.0602,7.4730892 209.72812,10.775059 196.52141,11.542289 178.80505,12.571499 169.04869,8.7556792 153.98256,-5.0951308 140.02813,-17.923911 130.22303,-21.972541 117.5263,-20.148301 105.39729,-18.405631 93.892289,-11.760011 78.821983,2.2084292 64.763517,15.239019 60.650979,15.583879 30.748273,6.2397692 19.412112,2.6974092 10.418924,0.49405922 5.8024969,0.12800922 -2.9583971,-0.56667078 -6.6411735,-2.6003508 -9.5886562,-8.3712007 -14.319368,-17.633421 -12.875532,-39.416385 -6.4216143,-56.151953 0.67419188,-74.551991 23.453359,-94.784596 50.52141,-106.72912 c 40.817989,-18.01206 90.24669,-22.41543 190.35153,-16.95753 14.76834,0.8052 41.99334,1.93367 60.5,2.50772 74.1293,2.29938 96.71822,3.48941 124.14847,6.54035 18.9574,2.10854 50.69961,3.42791 83.5,3.47068 66.31621,0.0865 118.54023,5.9928 160.5,18.151919 5.775,1.673481 21.075,6.861205 34,11.528276 12.925,4.66707 29.575,10.079499 37,12.02762 11.99521,3.14722 15.28346,3.595166 29.5,4.018681 16.65143,0.496051 15.99268,0.575849 41.65694,-5.046213 8.27181,-1.812039 12.78389,-1.032417 14.79856,2.556979 3.11069,5.542076 -2.67099,18.639576 -19.91927,45.124017 -6.00992,9.22814 -11.51405,18.1043802 -12.2314,19.7249702 -3.11399,7.035 -20.00537,8.52113 -38.80483,3.41412002 -7.90263,-2.14681002 -12.72632,-2.85263002 -19.5,-2.85329002 -10.23945,-10e-4 -15.38642,1.77400003 -24.00587,8.27879 -14.47764,10.9257498 -24.24219,11.3758898 -53.37815,2.4607 -19.14317,-5.85754 -26.58534,-7.37909998 -36.09226,-7.37909998 -9.98523,0 -18.04106,2.47095998 -26.18968,8.03315998 -11.52508,7.8669498 -15.93498,9.3755398 -28.33404,9.6928898 -9.08301,0.23247 -12.48131,-0.12952 -19.5,-2.07715 z"
       id="path867"
       inkscape:connector-curvature="0"
       transform="scale(0.26458333)" />
    <path
       style="opacity:0;fill:#000000;fill-opacity:1;stroke:#2c2f33;stroke-opacity:1"
       d="M 548.52141,16.488469 C 538.21557,13.628689 531.9251,11.208659 510.60187,1.9002892 484.60384,-9.4488107 480.21529,-10.543111 460.52141,-10.587421 c -21.79075,-0.049 -26.45544,1.1761303 -64.08335,16.8312002 -12.52957,5.2129198 -22.21031,6.9633498 -34.91665,6.3134698 -16.6135,-0.84971 -29.09066,-5.6231498 -47.43361,-18.1468498 -12.53216,-8.5563802 -18.79467,-10.8656602 -29.56639,-10.9025202 -11.23431,-0.0385 -16.28136,1.56347 -40.70595,12.9199402 C 220.0602,7.4730892 209.72812,10.775059 196.52141,11.542289 178.80505,12.571499 169.04869,8.7556792 153.98256,-5.0951308 140.02813,-17.923911 130.22303,-21.972541 117.5263,-20.148301 105.39729,-18.405631 93.892289,-11.760011 78.821983,2.2084292 64.763517,15.239019 60.650979,15.583879 30.748273,6.2397692 19.412112,2.6974092 10.418924,0.49405922 5.8024969,0.12800922 -2.9583971,-0.56667078 -6.6411735,-2.6003508 -9.5886562,-8.3712007 -14.319368,-17.633421 -12.875532,-39.416385 -6.4216143,-56.151953 0.67419188,-74.551991 23.453359,-94.784596 50.52141,-106.72912 c 40.817989,-18.01206 90.24669,-22.41543 190.35153,-16.95753 14.76834,0.8052 41.99334,1.93367 60.5,2.50772 74.1293,2.29938 96.71822,3.48941 124.14847,6.54035 18.9574,2.10854 50.69961,3.42791 83.5,3.47068 66.31621,0.0865 118.54023,5.9928 160.5,18.151919 5.775,1.673481 21.075,6.861205 34,11.528276 12.925,4.66707 29.575,10.079499 37,12.02762 11.99521,3.14722 15.28346,3.595166 29.5,4.018681 16.65143,0.496051 15.99268,0.575849 41.65694,-5.046213 8.27181,-1.812039 12.78389,-1.032417 14.79856,2.556979 3.11069,5.542076 -2.67099,18.639576 -19.91927,45.124017 -6.00992,9.22814 -11.51405,18.1043802 -12.2314,19.7249702 -3.11399,7.035 -20.00537,8.52113 -38.80483,3.41412002 -7.90263,-2.14681002 -12.72632,-2.85263002 -19.5,-2.85329002 -10.23945,-10e-4 -15.38642,1.77400003 -24.00587,8.27879 -14.47764,10.9257498 -24.24219,11.3758898 -53.37815,2.4607 -19.14317,-5.85754 -26.58534,-7.37909998 -36.09226,-7.37909998 -9.98523,0 -18.04106,2.47095998 -26.18968,8.03315998 -11.52508,7.8669498 -15.93498,9.3755398 -28.33404,9.6928898 -9.08301,0.23247 -12.48131,-0.12952 -19.5,-2.07715 z"
       id="path869"
       inkscape:connector-curvature="0"
       transform="scale(0.26458333)" />
    <path
       style="opacity:0;fill:#000000;fill-opacity:1;stroke:#2c2f33;stroke-opacity:1"
       d="M 548.52141,16.488469 C 538.21557,13.628689 531.9251,11.208659 510.60187,1.9002892 484.60384,-9.4488107 480.21529,-10.543111 460.52141,-10.587421 c -21.79075,-0.049 -26.45544,1.1761303 -64.08335,16.8312002 -12.52957,5.2129198 -22.21031,6.9633498 -34.91665,6.3134698 -16.6135,-0.84971 -29.09066,-5.6231498 -47.43361,-18.1468498 -12.53216,-8.5563802 -18.79467,-10.8656602 -29.56639,-10.9025202 -11.23431,-0.0385 -16.28136,1.56347 -40.70595,12.9199402 C 220.0602,7.4730892 209.72812,10.775059 196.52141,11.542289 178.80505,12.571499 169.04869,8.7556792 153.98256,-5.0951308 140.02813,-17.923911 130.22303,-21.972541 117.5263,-20.148301 105.39729,-18.405631 93.892289,-11.760011 78.821983,2.2084292 64.763517,15.239019 60.650979,15.583879 30.748273,6.2397692 19.412112,2.6974092 10.418924,0.49405922 5.8024969,0.12800922 -2.9583971,-0.56667078 -6.6411735,-2.6003508 -9.5886562,-8.3712007 -14.319368,-17.633421 -12.875532,-39.416385 -6.4216143,-56.151953 0.67419188,-74.551991 23.453359,-94.784596 50.52141,-106.72912 c 40.817989,-18.01206 90.24669,-22.41543 190.35153,-16.95753 14.76834,0.8052 41.99334,1.93367 60.5,2.50772 74.1293,2.29938 96.71822,3.48941 124.14847,6.54035 18.9574,2.10854 50.69961,3.42791 83.5,3.47068 66.31621,0.0865 118.54023,5.9928 160.5,18.151919 5.775,1.673481 21.075,6.861205 34,11.528276 12.925,4.66707 29.575,10.079499 37,12.02762 11.99521,3.14722 15.28346,3.595166 29.5,4.018681 16.65143,0.496051 15.99268,0.575849 41.65694,-5.046213 8.27181,-1.812039 12.78389,-1.032417 14.79856,2.556979 3.11069,5.542076 -2.67099,18.639576 -19.91927,45.124017 -6.00992,9.22814 -11.51405,18.1043802 -12.2314,19.7249702 -3.11399,7.035 -20.00537,8.52113 -38.80483,3.41412002 -7.90263,-2.14681002 -12.72632,-2.85263002 -19.5,-2.85329002 -10.23945,-10e-4 -15.38642,1.77400003 -24.00587,8.27879 -14.47764,10.9257498 -24.24219,11.3758898 -53.37815,2.4607 -19.14317,-5.85754 -26.58534,-7.37909998 -36.09226,-7.37909998 -9.98523,0 -18.04106,2.47095998 -26.18968,8.03315998 -11.52508,7.8669498 -15.93498,9.3755398 -28.33404,9.6928898 -9.08301,0.23247 -12.48131,-0.12952 -19.5,-2.07715 z"
       id="path871"
       inkscape:connector-curvature="0"
       transform="scale(0.26458333)" />
    <path
       style="opacity:0;fill:#000000;fill-opacity:1;stroke:#2c2f33;stroke-opacity:1"
       d="M 548.52141,16.488469 C 538.21557,13.628689 531.9251,11.208659 510.60187,1.9002892 484.60384,-9.4488107 480.21529,-10.543111 460.52141,-10.587421 c -21.79075,-0.049 -26.45544,1.1761303 -64.08335,16.8312002 -12.52957,5.2129198 -22.21031,6.9633498 -34.91665,6.3134698 -16.6135,-0.84971 -29.09066,-5.6231498 -47.43361,-18.1468498 -12.53216,-8.5563802 -18.79467,-10.8656602 -29.56639,-10.9025202 -11.23431,-0.0385 -16.28136,1.56347 -40.70595,12.9199402 C 220.0602,7.4730892 209.72812,10.775059 196.52141,11.542289 178.80505,12.571499 169.04869,8.7556792 153.98256,-5.0951308 140.02813,-17.923911 130.22303,-21.972541 117.5263,-20.148301 105.39729,-18.405631 93.892289,-11.760011 78.821983,2.2084292 64.763517,15.239019 60.650979,15.583879 30.748273,6.2397692 19.412112,2.6974092 10.418924,0.49405922 5.8024969,0.12800922 -2.9583971,-0.56667078 -6.6411735,-2.6003508 -9.5886562,-8.3712007 -14.319368,-17.633421 -12.875532,-39.416385 -6.4216143,-56.151953 0.67419188,-74.551991 23.453359,-94.784596 50.52141,-106.72912 c 40.817989,-18.01206 90.24669,-22.41543 190.35153,-16.95753 14.76834,0.8052 41.99334,1.93367 60.5,2.50772 74.1293,2.29938 96.71822,3.48941 124.14847,6.54035 18.9574,2.10854 50.69961,3.42791 83.5,3.47068 66.31621,0.0865 118.54023,5.9928 160.5,18.151919 5.775,1.673481 21.075,6.861205 34,11.528276 12.925,4.66707 29.575,10.079499 37,12.02762 11.99521,3.14722 15.28346,3.595166 29.5,4.018681 16.65143,0.496051 15.99268,0.575849 41.65694,-5.046213 8.27181,-1.812039 12.78389,-1.032417 14.79856,2.556979 3.11069,5.542076 -2.67099,18.639576 -19.91927,45.124017 -6.00992,9.22814 -11.51405,18.1043802 -12.2314,19.7249702 -3.11399,7.035 -20.00537,8.52113 -38.80483,3.41412002 -7.90263,-2.14681002 -12.72632,-2.85263002 -19.5,-2.85329002 -10.23945,-10e-4 -15.38642,1.77400003 -24.00587,8.27879 -14.47764,10.9257498 -24.24219,11.3758898 -53.37815,2.4607 -19.14317,-5.85754 -26.58534,-7.37909998 -36.09226,-7.37909998 -9.98523,0 -18.04106,2.47095998 -26.18968,8.03315998 -11.52508,7.8669498 -15.93498,9.3755398 -28.33404,9.6928898 -9.08301,0.23247 -12.48131,-0.12952 -19.5,-2.07715 z"
       id="path873"
       inkscape:connector-curvature="0"
       transform="scale(0.26458333)" />
    <path
       style="opacity:0;fill:#000080;fill-opacity:1;stroke:#2c2f33;stroke-opacity:1"
       d="m 546.41206,163.44489 c -9.24306,-2.0271 -16.7561,-4.79627 -39.28772,-14.48078 -29.58912,-12.71794 -32.91341,-13.55988 -53.21228,-13.47696 -19.72497,0.0806 -28.03941,1.9306 -49.24451,10.95725 -20.97829,8.93009 -29.86225,11.58651 -40.81897,12.20542 -18.63914,1.05285 -33.25007,-3.4784 -52.5816,-16.307 -18.18867,-12.07019 -27.12037,-14.82295 -40.32557,-12.42839 -9.42859,1.70973 -13.66221,3.30654 -33.02935,12.45783 -24.94652,11.78765 -37.51527,15.54749 -51.97356,15.54749 -14.29749,0 -25.31808,-4.97439 -38.93151,-17.5726 -14.35941,-13.28856 -24.1415,-16.90391 -37.94803,-14.02517 -11.814341,2.46336 -21.66532,8.3959 -35.199412,21.19808 -10.419562,9.85608 -12.638192,10.92025 -22.447488,10.76696 -6.702131,-0.10473 -10.946108,-1.04238 -26.15966,-5.77963 -10.925407,-3.40199 -21.4821951,-6.02779 -26.5000001,-6.59138 -7.687762,-0.86346 -8.589923,-1.20665 -11.5301589,-4.38616 -4.151958,-4.48983 -5.611292,-10.0467 -5.543884,-21.1101 0.05954,-9.7713 1.889292,-19.78051 5.316102,-29.080346 C -4.4532291,68.129746 24.367276,45.266873 60.466594,33.055062 93.31573,21.942736 141.53092,17.919698 205.91206,20.919205 c 11.275,0.525301 34.9,1.632956 52.5,2.461457 17.6,0.828502 48.425,1.976241 68.5,2.550532 41.70633,1.193105 60.3912,2.240369 88,4.932292 30.76492,2.999652 32.67223,3.088664 87,4.060194 98.11297,1.754529 133.18361,7.047789 195.52226,29.510447 13.18776,4.751979 30.05274,10.233091 37.47774,12.180248 11.85686,3.109381 15.38657,3.598855 29,4.021495 13.28345,0.412395 16.93003,0.174894 25.5,-1.660813 5.5,-1.178113 13.20422,-2.827901 17.1205,-3.666195 6.4235,-1.374976 7.48754,-1.370809 10.87024,0.04258 l 3.74976,1.566746 -0.43018,5.947115 c -0.55965,7.737034 -5.20147,17.065487 -20.0116,40.216347 -6.2143,9.71405 -12.02129,18.97489 -12.90444,20.57965 -3.64838,6.62944 -18.90882,7.53096 -39.89428,2.35678 -10.70069,-2.63837 -14.86733,-3.23102 -20.09412,-2.85812 -7.25987,0.51794 -15.70915,3.86423 -21.74177,8.61072 -13.56365,10.67191 -24.55344,11.22751 -52.67334,2.66298 -21.58978,-6.57563 -28.16216,-7.80239 -39.30141,-7.33575 -10.94364,0.45845 -16.25819,2.39072 -26.63329,9.68332 -10.87371,7.64307 -25.65266,10.04178 -41.05607,6.66366 z"
       id="path901"
       inkscape:connector-curvature="0"
       transform="scale(0.26458333)" />
    <path
       style="opacity:1;fill:#2c2f33;fill-opacity:0.97959185;stroke:#2c2f33;stroke-width:0.26458332;stroke-opacity:1"
       d="m 114.14444,27.10521 c -2.44556,-0.536337 -4.43339,-1.269013 -10.39488,-3.831373 -7.82878,-3.364955 -8.70834,-3.587718 -14.07908,-3.565779 -5.2189,0.02133 -7.41876,0.510804 -13.02928,2.899105 -5.5505,2.362753 -7.90105,3.065598 -10.800014,3.229351 -4.931606,0.278567 -8.797415,-0.920327 -13.912215,-4.31456 -4.812419,-3.193571 -7.175598,-3.921906 -10.669474,-3.288345 -2.494648,0.452366 -3.614793,0.874855 -8.739015,3.296134 -6.600434,3.118816 -9.925915,4.113607 -13.751338,4.113607 -3.782877,0 -6.698742,-1.316141 -10.3006279,-4.649417 -3.799261,-3.515932 -6.387439,-4.472493 -10.040417,-3.710826 -3.125877,0.651764 -5.732282,2.221415 -9.3131771,5.608658 -2.756843,2.607755 -3.343855,2.889316 -5.939231,2.848758 -1.773272,-0.02771 -2.896158,-0.275796 -6.92141,-1.529193 -2.890681,-0.90011 -5.683831,-1.594853 -7.011458,-1.74397 -2.034054,-0.228457 -2.272751,-0.319259 -3.050688,-1.160505 -1.098539,-1.187934 -1.484655,-2.658189 -1.46682,-5.58538 0.01575,-2.585323 0.499876,-5.233593 1.406552,-7.6941747 2.2628,-6.140888 9.888225,-12.190024 19.439502,-15.421065 8.6913341,-2.9401363 21.4482701,-4.0045653 38.482446,-3.2109463 2.983177,0.138986 9.233958,0.432053 13.890625,0.6512613 4.656667,0.219208 12.812448,0.52288 18.123958,0.674828 11.0348,0.315676 15.978502,0.592764 23.283332,1.305002 8.13989,0.793658 8.64453,0.817209 23.01875,1.07426 25.95906,0.464219 35.23816,1.864727 51.73193,7.80797197 3.48926,1.25729503 7.95146,2.70750603 9.91599,3.22269103 3.13712,0.82269 4.07103,0.952197 7.67291,1.06402 3.51458,0.109113 4.47941,0.04627 6.74688,-0.439423 1.45521,-0.311709 3.49361,-0.748215 4.5298,-0.970014 1.69955,-0.363796 1.98108,-0.362693 2.87608,0.01127 l 0.99213,0.414535 -0.11382,1.573507 c -0.14808,2.04709 -1.37623,4.5152437 -5.29474,10.6405747 -1.6442,2.570176 -3.18063,5.02044 -3.4143,5.445033 -0.9653,1.754039 -5.00296,1.992566 -10.55536,0.623564 -2.83122,-0.698068 -3.93365,-0.854874 -5.31657,-0.756211 -1.92084,0.137039 -4.15638,1.022411 -5.75251,2.278253 -3.58871,2.82361 -6.49643,2.970612 -13.93649,0.70458 -5.71229,-1.739802 -7.45123,-2.064382 -10.39849,-1.940917 -2.89551,0.121299 -4.30165,0.632545 -7.04673,2.562045 -2.877,2.022229 -6.78727,2.656888 -10.86275,1.763094 z"
       id="path903"
       inkscape:connector-curvature="0"
       clip-path="url(#clipPath944)" />
    <path
       style="opacity:1;fill:#2c2f33;fill-opacity:0.97959185;stroke:#2c2f33;stroke-width:0.26458332;stroke-opacity:1"
       d="m 317.26462,28.016854 c -2.44556,-0.536337 -4.43339,-1.269013 -10.39489,-3.831373 -7.82878,-3.364955 -8.70834,-3.587718 -14.07908,-3.565779 -5.2189,0.02133 -7.41876,0.510804 -13.02927,2.899106 -5.5505,2.362753 -7.90106,3.065597 -10.80002,3.22935 -4.93161,0.278567 -8.79742,-0.920326 -13.91222,-4.31456 -4.81242,-3.193571 -7.1756,-3.921906 -10.66947,-3.288345 -2.49465,0.452366 -3.6148,0.874855 -8.73902,3.296134 -6.60043,3.118816 -9.92591,4.113607 -13.75134,4.113607 -3.78287,0 -6.69874,-1.316141 -10.30062,-4.649417 -3.79927,-3.515932 -6.38744,-4.472493 -10.04042,-3.710826 -3.12588,0.651764 -5.73228,2.221415 -9.31318,5.608658 -2.75684,2.607755 -3.34385,2.889316 -5.93923,2.848758 -1.77327,-0.02771 -2.89616,-0.275796 -6.92141,-1.529193 -2.89068,-0.90011 -5.68383,-1.594853 -7.01146,-1.74397 -2.03405,-0.228457 -2.27275,-0.319259 -3.05069,-1.160504 -1.09853,-1.187935 -1.48465,-2.65819 -1.46682,-5.585381 0.0157,-2.585323 0.49988,-5.233593 1.40656,-7.6941746 2.2628,-6.1408883 9.88822,-12.1900244 19.4395,-15.4210652 8.69133,-2.9401368 21.44827,-4.0045662 38.48244,-3.2109468 2.98318,0.138986 9.23396,0.4320533 13.89063,0.6512617 4.65667,0.2192079 12.81245,0.52288 18.12396,0.6748279 11.0348,0.3156761 15.9785,0.5927641 23.28333,1.3050021 8.1399,0.793658 8.64454,0.8172091 23.01875,1.07426 25.95906,0.4642191 35.23817,1.8647269 51.73194,7.807972 3.48926,1.257295 7.95146,2.7075063 9.91599,3.2226913 3.13712,0.82269 4.07103,0.952197 7.67291,1.06402 3.51458,0.109113 4.4794,0.04627 6.74688,-0.439423 1.45521,-0.311709 3.49361,-0.748215 4.52979,-0.970014 1.69956,-0.363796 1.98109,-0.362693 2.87609,0.01127 l 0.99213,0.414535 -0.11383,1.573507 c -0.14807,2.04709 -1.37622,4.5152426 -5.29473,10.6405716 -1.6442,2.570176 -3.18063,5.020445 -3.4143,5.445038 -0.9653,1.754037 -5.00296,1.992561 -10.55537,0.623559 -2.83121,-0.698066 -3.93365,-0.854874 -5.31656,-0.756211 -1.92084,0.137041 -4.15638,1.022414 -5.75251,2.278256 -3.58871,2.823612 -6.49644,2.970609 -13.93649,0.70458 -5.7123,-1.739802 -7.45124,-2.064382 -10.39849,-1.940917 -2.89552,0.121298 -4.30165,0.632545 -7.04673,2.562042 -2.877,2.022229 -6.78727,2.656888 -10.86275,1.763096 z"
       id="path903-0"
       inkscape:connector-curvature="0"
       clip-path="url(#clipPath940)" />
  </g>
</svg>
