<?xml version="1.0" encoding="UTF-8" standalone="no"?>
<svg
   xmlns:dc="http://purl.org/dc/elements/1.1/"
   xmlns:cc="http://creativecommons.org/ns#"
   xmlns:rdf="http://www.w3.org/1999/02/22-rdf-syntax-ns#"
   xmlns:svg="http://www.w3.org/2000/svg"
   xmlns="http://www.w3.org/2000/svg"
   xmlns:sodipodi="http://sodipodi.sourceforge.net/DTD/sodipodi-0.dtd"
   xmlns:inkscape="http://www.inkscape.org/namespaces/inkscape"
   width="138"
   height="35"
   viewBox="0 0 138 35"
   version="1.1"
   id="svg22"
   sodipodi:docname="languettepage2.svg"
   inkscape:version="0.92.4 (5da689c313, 2019-01-14)">
  <metadata
     id="metadata28">
    <rdf:RDF>
      <cc:Work
         rdf:about="">
        <dc:format>image/svg+xml</dc:format>
        <dc:type
           rdf:resource="http://purl.org/dc/dcmitype/StillImage" />
        <dc:title></dc:title>
      </cc:Work>
    </rdf:RDF>
  </metadata>
  <defs
     id="defs26">
    <inkscape:path-effect
       simplifyJustCoalesce="false"
       simplifyindividualpaths="false"
       simplify_just_coalesce="false"
       simplify_individual_paths="false"
       helper_size="0"
       smooth_angles="360"
       threshold="0.5"
       steps="1"
       is_visible="true"
       id="path-effect4630"
       effect="simplify" />
    <inkscape:path-effect
       effect="simplify"
       id="path-effect4626"
       is_visible="true"
       steps="1"
       threshold="0.5"
       smooth_angles="360"
       helper_size="0"
       simplify_individual_paths="false"
       simplify_just_coalesce="false"
       simplifyindividualpaths="false"
       simplifyJustCoalesce="false" />
    <inkscape:path-effect
       effect="simplify"
       id="path-effect4598"
       is_visible="true"
       steps="1"
       threshold="0.5"
       smooth_angles="360"
       helper_size="0"
       simplify_individual_paths="false"
       simplify_just_coalesce="false"
       simplifyindividualpaths="false"
       simplifyJustCoalesce="false" />
  </defs>
  <sodipodi:namedview
     pagecolor="#ffffff"
     bordercolor="#666666"
     borderopacity="1"
     objecttolerance="10"
     gridtolerance="10"
     guidetolerance="10"
     inkscape:pageopacity="0"
     inkscape:pageshadow="2"
     inkscape:window-width="1366"
     inkscape:window-height="705"
     id="namedview24"
     showgrid="false"
     inkscape:zoom="5.6568543"
     inkscape:cx="66.480644"
     inkscape:cy="30.229627"
     inkscape:window-x="-8"
     inkscape:window-y="-8"
     inkscape:window-maximized="1"
     inkscape:current-layer="svg22" />
  <path
     d="M 134.84973,0.5625 C 136.25793,0.3975 137.31604,0.2734 138,0 H 69.0018 c 0,0 -0.0016,6.3613 -0.0018,15.4868 0,-1.2129 -1e-4,-2.376 -1e-4,-3.4824 L 68.9982,0 H 0 c 0.684,0.2734 1.742,0.3975 3.15,0.5625 3.74,0.438 9.947,1.1646 18.172,5.75 5.663,3.2974 10.155,7.7104 14.608,12.085 C 44.4526,26.76904 52.8315,35 68.9982,35 68.9994,29.729 69,24.5708 69,19.9048 c 0,4.6665 6e-4,9.82372 0.0018,15.0952 16.1668,0 24.5456,-8.23096 33.068,-16.6025 4.453,-4.3746 8.9452,-8.7876 14.6081,-12.085 8.2247,-4.5854 14.43245,-5.312 18.17183,-5.75 z"
     id="path20"
     inkscape:connector-curvature="0"
     style="fill:#000000;fill-opacity:1" />
  <path
     style="fill:#000000;fill-opacity:1;stroke-width:0.00390625"
     d="m 68.471888,34.995334 c -1.012843,-0.0098 -2.190571,-0.06474 -3.167775,-0.147871 -0.0622,-0.0053 -0.114494,-0.0096 -0.116211,-0.0096 -0.0017,0 -0.0031,-0.440332 -0.0031,-0.978515 v -0.978516 h 1.90625 1.90625 v 1.058594 1.058593 l -0.217773,-8.99e-4 c -0.119776,-4.95e-4 -0.258204,-0.0013 -0.307618,-0.0018 z"
     id="path4538"
     inkscape:connector-curvature="0" />
  <path
     style="fill:#39446d;fill-opacity:1;stroke-width:0.00390625"
     d="m 69.005091,33.939405 v -1.058594 h 1.935547 1.935547 v 0.976562 0.976563 h -0.0089 c -0.0049,0 -0.05984,0.0043 -0.12207,0.0096 -0.87018,0.07388 -1.77321,0.121815 -2.689325,0.142767 -0.25499,0.0058 -0.692401,0.0116 -0.883789,0.01165 l -0.166993,4.3e-5 z"
     id="path4542"
     inkscape:connector-curvature="0" />
  <path
     style="fill:#39446d;fill-opacity:1;stroke-width:0.00390625"
     d="m 68.999196,34.181592 c 0,-0.450097 4.55e-4,-0.634228 0.001,-0.409179 5.57e-4,0.225048 5.57e-4,0.59331 0,0.818359 -5.57e-4,0.225049 -0.001,0.04092 -0.001,-0.40918 z"
     id="path4544"
     inkscape:connector-curvature="0" />
  <path
     style="fill:#39446d;fill-opacity:1;stroke-width:0.00390625"
     d="m 69.005091,33.940048 v -1.059237 h 1.935547 1.935547 v 0.976562 0.976563 h -0.0092 c -0.005,0 -0.05909,0.0043 -0.120118,0.0096 -1.0517,0.0913 -2.226897,0.144245 -3.399035,0.153122 l -0.342774,0.0026 z"
     id="path4546"
     inkscape:connector-curvature="0" />
  <path
     style="fill:#000000;fill-opacity:1;stroke-width:0.00651536"
     d="M 69.005091,32.880811 V 30.76236 h 2.692372 2.692372 v 1.953105 c 0,1.854885 -4.78e-4,1.953108 -0.0095,1.953126 -0.0053,8e-6 -0.09509,0.0104 -0.199686,0.02314 -1.528398,0.185838 -3.066146,0.284855 -4.69603,0.302373 l -0.47952,0.0052 z"
     id="path4548"
     inkscape:connector-curvature="0" />
  <path
     style="fill:#39446d;fill-opacity:1;stroke-width:0.00390625"
     d="m 68.998851,34.619092 c 0,-0.0333 5.99e-4,-0.04692 0.0013,-0.03027 7.32e-4,0.01665 7.32e-4,0.0439 0,0.06055 -7.33e-4,0.01665 -0.0013,0.003 -0.0013,-0.03027 z"
     id="path4550"
     inkscape:connector-curvature="0" />
  <path
     style="fill:#000000;fill-opacity:1;stroke-width:0.32638389"
     d="m 68.893726,17.500134 c 0,-15.5898048 0.08839,-21.9674771 0.19387,-14.1725345 0.107985,7.7949155 0.107985,20.5502025 0,28.3451185 -0.108192,7.794916 -0.19387,1.417385 -0.19387,-14.172584 z"
     id="path4552"
     inkscape:connector-curvature="0" />
  <path
     style="fill:#ffffff;stroke:#ffffff;stroke-width:1px;stroke-linecap:butt;stroke-linejoin:miter;stroke-opacity:1"
     d="m 60.875,12.25 c 1.108496,0.754721 5.025163,3.421387 5.875,4"
     id="path4624"
     inkscape:connector-curvature="0"
     inkscape:path-effect="#path-effect4626"
     inkscape:original-d="m 60.875,12.25 5.875,4"
     transform="translate(2.8125,-0.7632)" />
  <path
     inkscape:original-d="m 60.875,12.25 5.875,4"
     inkscape:path-effect="#path-effect4630"
     inkscape:connector-curvature="0"
     id="path4628"
     d="m 60.875,12.25 c 1.108496,0.754721 5.025163,3.421387 5.875,4"
     style="fill:#ffffff;stroke:#ffffff;stroke-width:1px;stroke-linecap:butt;stroke-linejoin:miter;stroke-opacity:1"
     transform="matrix(-1,0,0,1,135.75,-0.7632)" />
</svg>
