<?xml version="1.0" encoding="utf-8"?>
<!-- Generator: Adobe Illustrator 23.0.1, SVG Export Plug-In . SVG Version: 6.00 Build 0)  -->
<svg version="1.1" id="Calque_1" xmlns="http://www.w3.org/2000/svg" xmlns:xlink="http://www.w3.org/1999/xlink" x="0px" y="0px"
	 viewBox="0 0 44 90" style="enable-background:new 0 0 44 90;" xml:space="preserve">
<style type="text/css">
	.st0{fill:#7289DA;}
</style>
<path class="st0" d="M44,6.5C44,2.9,41.1,0,37.5,0h-31C2.9,0,0,2.9,0,6.5v77C0,87.1,2.9,90,6.5,90h31c3.6,0,6.5-2.9,6.5-6.5V6.5z
	 M19.5,5h5.8C25.7,5,26,5.1,26,5.5S25.7,6,25.3,6h-5.8c-0.4,0-0.6-0.1-0.6-0.5S19.1,5,19.5,5z M22.4,87.6c-2,0-3.6-1.6-3.6-3.6
	s1.6-3.6,3.6-3.6S26,82.1,26,84S24.4,87.6,22.4,87.6z M41,78H3V11h38V78z"/>
</svg>
